<?xml version="1.0" encoding="utf-8"?>
<!-- Generator: Adobe Illustrator 16.0.3, SVG Export Plug-In . SVG Version: 6.00 Build 0)  -->
<!DOCTYPE svg PUBLIC "-//W3C//DTD SVG 1.1//EN" "http://www.w3.org/Graphics/SVG/1.1/DTD/svg11.dtd">
<svg version="1.1" id="Capa_1" xmlns="http://www.w3.org/2000/svg" xmlns:xlink="http://www.w3.org/1999/xlink" x="0px" y="0px"
	 width="175px" height="175px" viewBox="0 0 175 175" enable-background="new 0 0 175 175" xml:space="preserve">
<g>
	<g>
		<g>
			<g>
				<g>
					<path fill="#FFFFFF" d="M122.922,62.776v37.561c21.521,4.27,37.75,10.73,48.811,16.85l-10.99-26.369l10.99-14.461
						c-14.471-5.869-30.98-10.51-48.33-13.49L122.922,62.776z"/>
					<path fill="#1A1A1A" d="M171.248,118.062c-9.148-5.063-24.991-12.074-48.521-16.744l-0.806-0.16V61.573l1.65,0.309
						c17.172,2.947,33.955,7.633,48.536,13.549l1.211,0.49l-11.433,15.043l11.873,28.486L171.248,118.062z M123.922,63.972v35.545
						c21.35,4.316,36.381,10.545,45.806,15.457l-10.13-24.303l10.545-13.875C156.18,71.243,140.248,66.823,123.922,63.972z"/>
				</g>
				<path fill="#1A1A1A" d="M149.783,98.901c0,0-19.862-1.426-27.861,2.256V88.386C121.922,88.386,146.463,90.124,149.783,98.901z"
					/>
			</g>
			<g>
				<path fill="#1A1A1A" d="M140.178,101.157c0,0,15.26,4.029,25.441,9.617l-7.077-16.002l2.607,11.184
					C161.149,105.956,149.709,101.958,140.178,101.157z"/>
				<path fill="#1A1A1A" d="M157.052,89.981l9.56-12.021c0,0-8.318-3.439-11.795-4.309l7.926,5.672
					C162.742,79.323,159.659,83.962,157.052,89.981z"/>
			</g>
		</g>
		<g>
			<g>
				<g>
					<path fill="#FFFFFF" d="M54.578,62.776v37.561c-21.52,4.27-37.75,10.73-48.81,16.85l10.99-26.369L5.769,76.356
						c14.47-5.869,30.979-10.51,48.33-13.49L54.578,62.776z"/>
					<path fill="#1A1A1A" d="M3.741,119.45l11.873-28.486L4.182,75.921l1.211-0.49c14.581-5.916,31.365-10.602,48.537-13.549
						l1.648-0.309v39.584l-0.805,0.16c-23.529,4.67-39.373,11.682-48.521,16.744L3.741,119.45z M7.358,76.796l10.545,13.875
						l-10.13,24.303c9.425-4.912,24.457-11.141,45.805-15.457V63.972C37.253,66.823,21.322,71.243,7.358,76.796z"/>
				</g>
				<path fill="#1A1A1A" d="M27.719,98.901c0,0,19.861-1.426,27.859,2.256V88.386C55.578,88.386,31.039,90.124,27.719,98.901z"/>
			</g>
			<g>
				<path fill="#1A1A1A" d="M37.324,101.157c0,0-15.262,4.029-25.442,9.617l7.077-16.002l-2.607,11.184
					C16.352,105.956,27.792,101.958,37.324,101.157z"/>
				<path fill="#1A1A1A" d="M20.449,89.981L10.889,77.96c0,0,8.318-3.439,11.795-4.309l-7.925,5.672
					C14.759,79.323,17.842,83.962,20.449,89.981z"/>
			</g>
		</g>
	</g>
	<g display="none">
		<path display="inline" fill="#FFFFFF" d="M169.042,6.318c-0.403-0.51-1.013-0.814-1.663-0.83l-0.586-0.014
			c-4.012-0.096-7.926-3.32-11.713-6.439c-1.949-1.605-3.789-3.123-5.723-4.309c-2.571-1.58-5.34-2.35-8.463-2.35
			c-3.871,0-7.6,1.186-11.205,2.332c-1.736,0.551-3.531,1.121-5.213,1.502c-3.811,0.867-7.016,0.814-9.822-0.168
			c-2.755-0.965-4.523-2.963-6.572-5.275l-0.094-0.105c-0.423-0.479-0.859-0.969-1.301-1.447l-0.662-0.721
			c-0.217-0.236-0.436-0.475-0.656-0.711l0.271-1.268c0.22-1.016,0.029-2.057-0.533-2.928c-0.563-0.873-1.432-1.473-2.451-1.693
			c-0.265-0.057-0.539-0.086-0.816-0.086c-1.82,0-3.418,1.291-3.801,3.07L88.75,28.044l-9.287-43.166
			c-0.385-1.779-1.982-3.07-3.802-3.07c-0.278,0-0.556,0.029-0.819,0.086c-1.016,0.219-1.886,0.822-2.447,1.693
			c-0.564,0.871-0.754,1.912-0.534,2.928l0.272,1.266c-0.221,0.238-0.441,0.477-0.658,0.713l-0.653,0.713
			c-0.448,0.486-0.884,0.977-1.306,1.453l-0.098,0.109c-2.047,2.311-3.816,4.309-6.57,5.273C60.039-2.975,56.84-2.92,53.021-3.79
			c-1.676-0.379-3.473-0.951-5.21-1.502c-3.605-1.146-7.333-2.332-11.204-2.332c-3.125,0-5.893,0.77-8.463,2.35
			c-1.934,1.186-3.773,2.703-5.725,4.309c-3.785,3.119-7.699,6.344-11.709,6.439l-0.589,0.014c-0.65,0.016-1.261,0.32-1.663,0.83
			C8.057,6.83,7.902,7.494,8.039,8.13l8.277,38.467c0.129,0.598,0.502,1.113,1.027,1.422c0.525,0.309,1.154,0.385,1.741,0.209
			l0.504-0.154c4.206-1.274,7.759-4.2,11.205-7.038c1.804-1.484,3.507-2.889,5.122-3.879c1.705-1.049,3.561-1.559,5.669-1.559
			c3.046,0,6.372,1.059,9.644,2.1c1.825,0.58,3.712,1.18,5.592,1.604c4.843,1.094,9.021,0.977,12.768-0.338
			c4.067-1.424,6.477-4.145,8.819-6.789c0.425-0.48,0.863-0.979,1.309-1.461l0.704-0.766c0.207-0.225,0.42-0.457,0.637-0.691
			l3.716,17.271l-8.573,39.845c-0.219,1.014-0.028,2.053,0.535,2.926c0.564,0.875,1.434,1.475,2.428,1.688
			c0.272,0.063,0.557,0.094,0.84,0.094c1.819,0,3.417-1.293,3.799-3.072l4.949-23l4.949,23c0.383,1.779,1.982,3.072,3.801,3.072
			c0.283,0,0.566-0.031,0.818-0.09c1.014-0.217,1.885-0.816,2.447-1.689c0.564-0.873,0.754-1.914,0.535-2.928l-8.572-39.847
			l3.716-17.271c0.216,0.234,0.429,0.467,0.636,0.691l0.699,0.762c0.449,0.486,0.889,0.982,1.328,1.48
			c2.329,2.631,4.738,5.352,8.806,6.775c3.745,1.313,7.925,1.432,12.767,0.338c1.881-0.424,3.768-1.023,5.648-1.621
			c3.217-1.023,6.541-2.082,9.588-2.082c2.108,0,3.963,0.51,5.67,1.559c1.617,0.992,3.322,2.396,5.135,3.891
			c3.434,2.828,6.985,5.752,11.191,7.026l0.505,0.154c0.585,0.178,1.216,0.102,1.741-0.209c0.525-0.309,0.898-0.827,1.025-1.422
			l8.278-38.467C169.598,7.494,169.445,6.83,169.042,6.318z"/>
		<g display="inline">
			<g>
				<g>
					<g>
						<path fill="#B29176" d="M97.5,88.409c-0.563,0-1.066-0.391-1.19-0.961L74.47-14.047c-0.141-0.658,0.276-1.305,0.935-1.447
							s1.306,0.277,1.447,0.936l21.84,101.494c0.141,0.658-0.276,1.307-0.934,1.447C97.67,88.401,97.584,88.409,97.5,88.409z"/>
						<path fill="#1A1A1A" d="M87.67,35.714c-0.633,0.83-1.285,1.799-1.871,2.889L75.555-9.014l2.075-1.926L87.67,35.714z"/>
						<path fill="#1A1A1A" d="M91.361,52.885v0.002c-0.635,0.834-1.283,1.801-1.865,2.893l-1.664-7.729
							c0.597-1.071,1.253-2.014,1.885-2.819L91.361,52.885z"/>
						<path fill="#1A1A1A" d="M93.765,64.048c-0.638,0.873-1.279,1.877-1.843,3.006l-0.994-4.633
							c0.578-1.096,1.229-2.07,1.862-2.903L93.765,64.048z"/>
						<path fill="#1A1A1A" d="M95.423,71.751c-0.636,0.852-1.281,1.838-1.855,2.947l-0.995-4.623c0.591-1.08,1.243-2.033,1.877-2.85
							L95.423,71.751z"/>
						<path fill="#1A1A1A" d="M97.5,88.897c-0.798,0-1.5-0.566-1.666-1.348L73.994-13.946c-0.096-0.445-0.013-0.9,0.233-1.283
							c0.247-0.383,0.629-0.646,1.073-0.742c0.119-0.025,0.241-0.037,0.36-0.037c0.798,0,1.499,0.566,1.667,1.346l21.84,101.496
							c0.197,0.92-0.39,1.828-1.309,2.025C97.741,88.884,97.619,88.897,97.5,88.897z M75.661-15.036
							c-0.051,0-0.103,0.006-0.153,0.018c-0.191,0.041-0.355,0.154-0.461,0.318s-0.143,0.359-0.101,0.549l21.84,101.496
							c0.082,0.387,0.479,0.646,0.868,0.561c0.393-0.084,0.646-0.475,0.562-0.867L76.375-14.458
							C76.303-14.792,76.004-15.036,75.661-15.036z"/>
					</g>
				</g>
				<g>
					<path fill="#FFFFFF" d="M84.783,22.416c-2.301,1.396-4.183,3.387-6.001,5.367c-0.341,0.373-0.683,0.746-1.022,1.115
						c-2.795,3.029-4.955,6.113-9.056,7.549c-0.397,0.139-0.794,0.26-1.196,0.363c-3.313,0.873-6.756,0.645-10.098-0.111
						c-2.423-0.547-4.894-1.412-7.381-2.176c-3.066-0.939-6.157-1.727-9.212-1.572c-1.772,0.086-3.534,0.488-5.272,1.359
						c-0.343,0.172-0.686,0.363-1.027,0.572c-2.656,1.631-5.369,4.141-8.236,6.365c-2.362,1.832-4.831,3.471-7.466,4.27
						L10.773,8.144c2.76-0.066,5.336-1.217,7.783-2.801c3.257-2.113,6.285-5.004,9.221-7.148c0.593-0.434,1.179-0.836,1.766-1.193
						c1.067-0.658,2.145-1.125,3.23-1.436c2.936-0.844,5.921-0.559,8.902,0.141h0.003c3.62,0.854,7.237,2.314,10.755,3.109
						c2.324,0.525,4.691,0.799,7.033,0.621c1.436-0.107,2.865-0.385,4.264-0.875c3.316-1.162,5.365-3.404,7.513-5.824
						c0.502-0.568,1.009-1.145,1.538-1.721c1.377-1.49,2.756-3.057,4.291-4.428L84.783,22.416z"/>
					<g>
						<path fill="#1A1A1A" d="M52.656,4.986c-4.895-1.205-9.967-3.545-14.967-3.623L36.332-4.95
							c4.979-0.088,10.043,2.197,14.934,3.479L52.656,4.986z"/>
						<path fill="#1A1A1A" d="M78.348-7.487c-1.717,1.459-3.227,3.182-4.737,4.818c-2.285,2.477-4.146,4.988-6.991,6.605
							L65.314-2.12c3.119-1.6,5.059-4.254,7.467-6.863c1.377-1.492,2.756-3.057,4.291-4.428L78.348-7.487z"/>
						<path fill="#1A1A1A" d="M80.91,4.417c-2.1,1.586-3.871,3.625-5.639,5.541c-2.027,2.193-3.719,4.418-6.061,6.023l-1.292-6.01
							c2.585-1.619,4.366-3.992,6.521-6.326c1.64-1.777,3.283-3.658,5.188-5.188L80.91,4.417z"/>
						<path fill="#1A1A1A" d="M83.487,16.396c-2.514,1.652-4.538,4.002-6.558,6.189c-1.754,1.9-3.258,3.82-5.148,5.346l-1.283-5.963
							c2.111-1.572,3.711-3.65,5.602-5.695c1.896-2.053,3.793-4.248,6.096-5.877L83.487,16.396z"/>
						<path fill="#1A1A1A" d="M73.061,33.869c-1.236,1.066-2.621,1.969-4.355,2.576c-2.977,1.043-6.078,1.117-9.139,0.662
							l-1.376-6.404c3.237,0.553,6.532,0.533,9.686-0.572c1.526-0.533,2.784-1.297,3.905-2.199L73.061,33.869z"/>
						<path fill="#1A1A1A" d="M44.535,33.173c-3.379-0.527-6.742-0.303-10.018,1.709c-1.087,0.668-2.183,1.482-3.295,2.365
							l-1.281-5.955c1.268-1.02,2.514-1.967,3.747-2.725c3.098-1.902,6.276-2.205,9.472-1.785L44.535,33.173z"/>
						<path fill="#1A1A1A" d="M24.824,7.509c-3.891,3.207-8.029,6.578-12.699,6.922l-1.352-6.287
							c4.702-0.115,8.865-3.367,12.772-6.576L24.824,7.509z"/>
						<path fill="#1A1A1A" d="M39.053,7.693c-2.648-0.123-5.279,0.355-7.852,1.936c-1.67,1.023-3.359,2.396-5.098,3.826
							l-1.279-5.945c1.896-1.559,3.733-3.082,5.547-4.195c2.4-1.475,4.852-1.988,7.318-1.951L39.053,7.693z"/>
						<path fill="#1A1A1A" d="M67.919,9.972c-0.763,0.479-1.597,0.891-2.532,1.217c-3.678,1.289-7.546,1.102-11.295,0.254
							c-0.015-0.004-0.033-0.008-0.049-0.012l-1.387-6.445c0.203,0.049,0.404,0.098,0.606,0.143
							c3.749,0.85,7.616,1.035,11.296-0.252c0.746-0.262,1.428-0.578,2.061-0.939L67.919,9.972z"/>
						<path fill="#1A1A1A" d="M27.383,19.398c-3.867,3.172-7.96,6.76-12.566,7.535l-1.344-6.238
							c4.636-0.564,8.752-4.047,12.631-7.24L27.383,19.398z"/>
						<path fill="#1A1A1A" d="M29.941,31.292c-3.85,3.1-7.904,6.871-12.454,8.053l-1.333-6.195l0,0
							c4.578-0.982,8.648-4.666,12.508-7.805L29.941,31.292z"/>
						<path fill="#1A1A1A" d="M58.19,30.703c-0.538-0.09-1.075-0.197-1.609-0.32c-4.382-0.992-8.917-3.014-13.421-3.6l-1.373-6.379
							c4.684,0.488,9.408,2.635,13.965,3.666c0.35,0.08,0.704,0.152,1.059,0.221L58.19,30.703z"/>
						<path fill="#1A1A1A" d="M41.787,20.404c-3.01-0.314-6.005,0.057-8.928,1.852c-1.379,0.848-2.773,1.932-4.197,3.09
							l-1.279-5.947c1.58-1.295,3.123-2.52,4.647-3.457c2.747-1.686,5.559-2.115,8.388-1.9L41.787,20.404z"/>
						<path fill="#1A1A1A" d="M55.428,17.867c-0.17-0.035-0.338-0.074-0.506-0.111c-4.733-1.07-9.645-3.344-14.504-3.715
							l-1.365-6.348c5.018,0.236,10.098,2.623,14.99,3.738L55.428,17.867z"/>
						<path fill="#1A1A1A" d="M70.498,21.968c-1.006,0.75-2.127,1.385-3.451,1.85c-3.334,1.166-6.824,1.121-10.236,0.473
							l-1.383-6.424c3.59,0.752,7.277,0.867,10.79-0.363c1.126-0.393,2.106-0.912,2.993-1.521L70.498,21.968z"/>
					</g>
					<path fill="#1A1A1A" d="M18.451,46.138L10.173,7.669l0.589-0.014c4.766-0.115,8.977-3.582,13.049-6.936
						c1.889-1.559,3.675-3.029,5.477-4.135c2.218-1.363,4.613-2.025,7.32-2.025c3.531,0,7.096,1.133,10.543,2.229
						c1.781,0.566,3.623,1.15,5.39,1.551c1.97,0.447,3.761,0.664,5.478,0.664c1.975,0,3.843-0.303,5.551-0.9
						c3.291-1.152,5.328-3.453,7.484-5.889c0.441-0.498,0.899-1.016,1.371-1.525c0.221-0.24,0.44-0.48,0.662-0.723
						c1.158-1.266,2.355-2.574,3.662-3.74l0.625-0.557l7.958,36.982l-0.296,0.182c-2.379,1.443-4.334,3.578-6.225,5.641
						c-0.232,0.254-0.463,0.506-0.694,0.756c-0.464,0.502-0.918,1.016-1.354,1.51c-2.244,2.535-4.363,4.928-7.896,6.164
						c-1.809,0.635-3.784,0.955-5.87,0.955c-1.788,0-3.651-0.225-5.693-0.686c-1.809-0.408-3.669-1.002-5.467-1.572
						c-3.379-1.074-6.87-2.184-10.251-2.184c-2.524,0-4.752,0.615-6.812,1.879c-1.746,1.072-3.508,2.523-5.373,4.061
						c-3.271,2.693-6.654,5.48-10.444,6.629L18.451,46.138z M11.371,8.601l7.808,36.287c3.407-1.182,6.556-3.775,9.603-6.283
						c1.893-1.559,3.678-3.031,5.482-4.139c2.218-1.361,4.611-2.023,7.321-2.023c3.532,0,7.098,1.135,10.546,2.229
						c1.779,0.566,3.619,1.15,5.387,1.551c1.971,0.445,3.763,0.664,5.479,0.664c1.976,0,3.843-0.303,5.547-0.9
						c3.294-1.154,5.332-3.455,7.487-5.891c0.443-0.5,0.899-1.016,1.37-1.525c0.23-0.252,0.461-0.502,0.691-0.754
						c1.859-2.029,3.779-4.127,6.143-5.633l-7.458-34.656c-1.038,0.984-2.019,2.057-2.972,3.098
						c-0.222,0.242-0.443,0.484-0.665,0.725c-0.465,0.504-0.919,1.016-1.358,1.512c-2.242,2.533-4.359,4.926-7.892,6.16
						c-1.81,0.635-3.786,0.957-5.872,0.957c-1.789,0-3.65-0.227-5.691-0.688c-1.809-0.408-3.672-1.002-5.472-1.574
						c-3.376-1.072-6.868-2.182-10.247-2.182c-2.524,0-4.75,0.615-6.811,1.879c-1.744,1.072-3.506,2.523-5.369,4.057
						C20.391,4.796,16.221,8.232,11.371,8.601z"/>
				</g>
			</g>
			<g>
				<g>
					<g>
						<path fill="#B29176" d="M80.002,88.409c0.561,0,1.065-0.391,1.189-0.961l21.84-101.496c0.141-0.658-0.277-1.305-0.935-1.447
							s-1.306,0.277-1.446,0.936L78.809,86.935c-0.141,0.658,0.277,1.307,0.936,1.447C79.831,88.401,79.916,88.409,80.002,88.409z"
							/>
						<path fill="#1A1A1A" d="M89.832,35.714c0.633,0.83,1.283,1.799,1.87,2.889l10.244-47.617l-2.075-1.926L89.832,35.714z"/>
						<path fill="#1A1A1A" d="M83.736,64.048c0.638,0.873,1.279,1.877,1.842,3.006l0.996-4.633c-0.579-1.096-1.23-2.07-1.863-2.903
							L83.736,64.048z"/>
						<path fill="#1A1A1A" d="M82.078,71.751c0.635,0.852,1.279,1.838,1.855,2.947l0.994-4.623c-0.59-1.08-1.242-2.033-1.875-2.85
							L82.078,71.751z"/>
						<path fill="#1A1A1A" d="M79.642,88.858c-0.919-0.197-1.507-1.105-1.308-2.025l21.838-101.496
							c0.169-0.779,0.869-1.346,1.668-1.346c0.119,0,0.24,0.012,0.359,0.037c0.444,0.096,0.826,0.359,1.074,0.742
							c0.246,0.383,0.329,0.838,0.233,1.283L81.666,87.55c-0.166,0.781-0.867,1.348-1.664,1.348
							C79.881,88.897,79.76,88.884,79.642,88.858z M101.125-14.458L79.285,87.038c-0.085,0.393,0.166,0.783,0.561,0.867
							c0.391,0.086,0.787-0.174,0.869-0.561l21.84-101.496c0.041-0.189,0.006-0.385-0.102-0.549
							c-0.105-0.164-0.268-0.277-0.46-0.318c-0.05-0.012-0.103-0.018-0.153-0.018C101.498-15.036,101.197-14.792,101.125-14.458z"/>
					</g>
				</g>
				<g>
					<path fill="#FFFFFF" d="M92.718,22.416c2.3,1.396,4.183,3.387,6.001,5.367c0.341,0.373,0.682,0.746,1.023,1.115
						c2.793,3.029,4.954,6.113,9.055,7.549c0.397,0.139,0.794,0.26,1.195,0.363c3.314,0.873,6.755,0.645,10.098-0.111
						c2.424-0.547,4.895-1.412,7.383-2.176c3.066-0.939,6.155-1.727,9.211-1.572c1.772,0.086,3.535,0.488,5.271,1.359
						c0.344,0.172,0.688,0.363,1.027,0.572c2.658,1.631,5.369,4.141,8.236,6.365c2.363,1.832,4.83,3.471,7.467,4.27l8.041-37.373
						c-2.76-0.066-5.334-1.217-7.783-2.801c-3.257-2.113-6.284-5.004-9.22-7.148c-0.593-0.434-1.179-0.836-1.765-1.193
						c-1.068-0.658-2.146-1.125-3.232-1.436c-2.936-0.844-5.92-0.559-8.902,0.141h-0.002c-3.619,0.854-7.237,2.314-10.755,3.109
						c-2.323,0.525-4.692,0.799-7.032,0.621c-1.438-0.107-2.865-0.385-4.264-0.875c-3.319-1.162-5.365-3.404-7.514-5.824
						c-0.502-0.568-1.008-1.145-1.54-1.721c-1.375-1.49-2.755-3.057-4.29-4.428L92.718,22.416z"/>
					<g>
						<path fill="#1A1A1A" d="M124.845,4.986c4.895-1.205,9.968-3.545,14.966-3.623l1.358-6.313
							c-4.979-0.088-10.043,2.197-14.936,3.479L124.845,4.986z"/>
						<path fill="#1A1A1A" d="M99.154-7.487c1.715,1.459,3.225,3.182,4.736,4.818c2.284,2.477,4.145,4.988,6.991,6.605l1.304-6.057
							c-3.118-1.6-5.059-4.254-7.466-6.863c-1.378-1.492-2.757-3.057-4.292-4.428L99.154-7.487z"/>
						<path fill="#1A1A1A" d="M96.592,4.417c2.1,1.586,3.871,3.625,5.639,5.541c2.027,2.193,3.719,4.418,6.061,6.023l1.291-6.01
							c-2.586-1.619-4.365-3.992-6.521-6.326c-1.639-1.777-3.282-3.658-5.186-5.188L96.592,4.417z"/>
						<path fill="#1A1A1A" d="M94.014,16.396c2.514,1.652,4.537,4.002,6.558,6.189c1.755,1.9,3.257,3.82,5.147,5.346l1.283-5.963
							c-2.109-1.572-3.711-3.65-5.602-5.695c-1.895-2.053-3.793-4.248-6.095-5.877L94.014,16.396z"/>
						<path fill="#1A1A1A" d="M104.44,33.869c1.236,1.066,2.621,1.969,4.354,2.576c2.978,1.043,6.078,1.117,9.138,0.662l1.377-6.404
							c-3.235,0.553-6.532,0.533-9.685-0.572c-1.529-0.533-2.784-1.297-3.906-2.199L104.44,33.869z"/>
						<path fill="#1A1A1A" d="M132.966,33.173c3.379-0.527,6.743-0.303,10.017,1.709c1.088,0.668,2.184,1.482,3.297,2.365
							l1.279-5.955c-1.268-1.02-2.512-1.967-3.746-2.725c-3.098-1.902-6.276-2.205-9.472-1.785L132.966,33.173z"/>
						<path fill="#1A1A1A" d="M152.676,7.509c3.893,3.207,8.031,6.578,12.699,6.922l1.352-6.287
							c-4.701-0.115-8.863-3.367-12.771-6.576L152.676,7.509z"/>
						<path fill="#1A1A1A" d="M138.449,7.693c2.646-0.123,5.277,0.355,7.852,1.936c1.668,1.023,3.359,2.396,5.096,3.826l1.279-5.945
							c-1.895-1.559-3.732-3.082-5.547-4.195c-2.4-1.475-4.851-1.988-7.318-1.951L138.449,7.693z"/>
						<path fill="#1A1A1A" d="M109.582,9.972c0.764,0.479,1.598,0.891,2.531,1.217c3.679,1.289,7.547,1.102,11.296,0.254
							c0.015-0.004,0.032-0.008,0.049-0.012l1.387-6.445c-0.204,0.049-0.405,0.098-0.606,0.143
							c-3.748,0.85-7.617,1.035-11.297-0.252c-0.744-0.262-1.427-0.578-2.06-0.939L109.582,9.972z"/>
						<path fill="#1A1A1A" d="M150.117,19.398c3.868,3.172,7.961,6.76,12.568,7.535l1.342-6.238
							c-4.637-0.564-8.75-4.047-12.631-7.24L150.117,19.398z"/>
						<path fill="#1A1A1A" d="M147.559,31.292c3.85,3.1,7.904,6.871,12.455,8.053l1.332-6.195l0,0
							c-4.576-0.982-8.648-4.666-12.507-7.805L147.559,31.292z"/>
						<path fill="#1A1A1A" d="M119.31,30.703c0.54-0.09,1.077-0.197,1.61-0.32c4.381-0.992,8.916-3.014,13.421-3.6l1.373-6.379
							c-4.684,0.488-9.407,2.635-13.964,3.666c-0.352,0.08-0.705,0.152-1.059,0.221L119.31,30.703z"/>
						<path fill="#1A1A1A" d="M135.714,20.404c3.01-0.314,6.005,0.057,8.928,1.852c1.38,0.848,2.773,1.932,4.197,3.09l1.278-5.947
							c-1.578-1.295-3.122-2.52-4.646-3.457c-2.746-1.686-5.559-2.115-8.387-1.9L135.714,20.404z"/>
						<path fill="#1A1A1A" d="M122.073,17.867c0.17-0.035,0.338-0.074,0.505-0.111c4.734-1.07,9.646-3.344,14.506-3.715l1.365-6.348
							c-5.019,0.236-10.102,2.623-14.991,3.738L122.073,17.867z"/>
						<path fill="#1A1A1A" d="M107.002,21.968c1.007,0.75,2.129,1.385,3.452,1.85c3.333,1.166,6.823,1.121,10.237,0.473l1.382-6.424
							c-3.59,0.752-7.276,0.867-10.79-0.363c-1.127-0.393-2.105-0.912-2.992-1.521L107.002,21.968z"/>
					</g>
					<path fill="#1A1A1A" d="M158.545,45.986c-3.791-1.148-7.174-3.936-10.444-6.629c-1.866-1.537-3.628-2.988-5.374-4.061
						c-2.059-1.264-4.286-1.879-6.811-1.879c-3.381,0-6.873,1.109-10.25,2.184c-1.799,0.57-3.66,1.164-5.467,1.572
						c-2.043,0.461-3.906,0.686-5.695,0.686c-2.084,0-4.061-0.32-5.869-0.955c-3.532-1.236-5.651-3.629-7.895-6.164
						c-0.438-0.494-0.892-1.008-1.356-1.51c-0.229-0.25-0.462-0.502-0.692-0.756c-1.891-2.063-3.846-4.197-6.227-5.641l-0.296-0.182
						l7.959-36.982l0.624,0.557c1.307,1.166,2.506,2.475,3.663,3.74c0.222,0.242,0.442,0.482,0.661,0.723
						c0.473,0.51,0.93,1.027,1.373,1.525c2.156,2.436,4.192,4.736,7.484,5.889c1.707,0.598,3.574,0.9,5.55,0.9
						c1.715,0,3.508-0.217,5.477-0.664c1.769-0.4,3.61-0.984,5.39-1.551c3.447-1.096,7.012-2.229,10.545-2.229
						c2.707,0,5.102,0.662,7.32,2.025c1.801,1.105,3.588,2.576,5.477,4.135c4.071,3.354,8.283,6.82,13.049,6.936l0.588,0.014
						l-8.277,38.469L158.545,45.986z M153.072,1.47c-1.863-1.533-3.623-2.984-5.368-4.057c-2.061-1.264-4.286-1.879-6.81-1.879
						c-3.381,0-6.873,1.109-10.248,2.182c-1.801,0.572-3.662,1.166-5.471,1.574c-2.042,0.461-3.902,0.688-5.692,0.688
						c-2.086,0-4.062-0.322-5.872-0.957c-3.532-1.234-5.649-3.627-7.893-6.16c-0.438-0.496-0.893-1.008-1.357-1.512
						c-0.222-0.24-0.443-0.482-0.665-0.725c-0.952-1.041-1.934-2.113-2.972-3.098l-7.458,34.656
						c2.363,1.506,4.282,3.604,6.143,5.633c0.23,0.252,0.46,0.502,0.69,0.754c0.472,0.51,0.928,1.025,1.37,1.525
						c2.156,2.436,4.194,4.736,7.485,5.891c1.707,0.598,3.574,0.9,5.549,0.9c1.717,0,3.508-0.219,5.479-0.664
						c1.767-0.4,3.608-0.984,5.387-1.551c3.448-1.094,7.014-2.229,10.546-2.229c2.709,0,5.104,0.662,7.32,2.023
						c1.805,1.107,3.592,2.58,5.483,4.139c3.048,2.508,6.194,5.102,9.603,6.283l7.808-36.287
						C161.28,8.232,157.11,4.796,153.072,1.47z"/>
				</g>
			</g>
		</g>
	</g>
	<g display="none">
		<path display="inline" fill="none" d="M15.324,67.79c0,40.553,32.877,73.426,73.428,73.426s73.426-32.873,73.426-73.426"/>
		<path display="inline" fill="#2E2E2E" d="M60.745,123.721l4.049,2.119l-0.652,1.246l-1.246-0.652l-2.689,5.139
			c-0.185,0.354-0.399,0.674-0.645,0.957c-0.245,0.285-0.53,0.531-0.854,0.736c-0.324,0.207-0.667,0.354-1.029,0.441
			c-0.362,0.088-0.762,0.1-1.2,0.035c-0.438-0.066-0.884-0.217-1.335-0.453c-0.981-0.514-1.71-1.074-2.187-1.678
			c-0.477-0.605-0.717-1.258-0.719-1.955c-0.002-0.695,0.217-1.465,0.657-2.307l2.526-4.828l-1.246-0.652l0.652-1.246l4.984,2.609
			l-0.652,1.244l-1.246-0.65l-2.526,4.828c-0.148,0.283-0.263,0.555-0.345,0.816c-0.082,0.26-0.132,0.494-0.149,0.697
			c-0.018,0.205-0.01,0.398,0.022,0.582s0.083,0.346,0.149,0.482c0.067,0.139,0.15,0.266,0.249,0.383s0.2,0.217,0.304,0.295
			c0.104,0.08,0.216,0.15,0.335,0.213c0.304,0.16,0.604,0.246,0.902,0.262s0.574-0.035,0.829-0.152
			c0.254-0.115,0.49-0.285,0.707-0.508c0.217-0.221,0.408-0.49,0.572-0.803l2.689-5.141l-1.558-0.814L60.745,123.721z"/>
		<path display="inline" fill="#2E2E2E" d="M65.476,128.98l2.603,0.82l0.207,1.186c0.744-0.635,1.568-0.811,2.474-0.523
			c0.606,0.189,1.029,0.529,1.267,1.014c0.239,0.486,0.264,1.025,0.077,1.621c-0.117,0.371-0.348,0.646-0.691,0.826
			c-0.344,0.178-0.702,0.209-1.073,0.092s-0.646-0.348-0.826-0.691c-0.179-0.344-0.209-0.701-0.092-1.072
			c0.047-0.15,0.117-0.289,0.208-0.414c-0.062-0.068-0.134-0.115-0.218-0.143c-0.187-0.059-0.419,0.002-0.696,0.184
			c-0.277,0.182-0.584,0.486-0.922,0.914l-1.142,3.563l1.844,0.582l-0.423,1.34l-5.029-1.586l0.423-1.34l0.838,0.264l1.586-5.029
			l-0.838-0.264L65.476,128.98z"/>
		<path display="inline" fill="#2E2E2E" d="M80.614,131.045c0.057-0.387,0.241-0.693,0.552-0.926c0.311-0.23,0.659-0.316,1.045-0.26
			c0.145,0.021,0.284,0.063,0.416,0.127c0.172,0.082,0.318,0.178,0.44,0.287s0.216,0.225,0.285,0.344
			c0.068,0.121,0.118,0.254,0.149,0.402c0.031,0.148,0.046,0.295,0.044,0.438c-0.002,0.143-0.016,0.301-0.041,0.471
			c-0.026,0.178-0.088,0.357-0.187,0.541c-0.098,0.186-0.217,0.355-0.357,0.51c-0.14,0.156-0.289,0.299-0.445,0.428
			s-0.314,0.24-0.473,0.332c0.369,0.49,0.508,1.045,0.416,1.666c-0.068,0.463-0.23,0.859-0.484,1.191
			c-0.255,0.332-0.575,0.582-0.961,0.752c-0.387,0.168-0.815,0.277-1.285,0.322c-0.47,0.047-0.972,0.029-1.505-0.049
			c-0.44-0.064-0.855-0.176-1.243-0.334c-0.27,0.002-0.483,0.043-0.64,0.123c-0.157,0.08-0.242,0.164-0.254,0.252
			c-0.013,0.086,0.011,0.172,0.073,0.254c0.062,0.084,0.136,0.131,0.223,0.145l2.435,0.359c1.226,0.18,2.086,0.486,2.581,0.918
			s0.683,1.051,0.563,1.855c-0.057,0.389-0.157,0.734-0.299,1.037s-0.313,0.555-0.509,0.756s-0.428,0.369-0.694,0.506
			s-0.539,0.238-0.818,0.305c-0.279,0.064-0.585,0.105-0.919,0.121s-0.655,0.014-0.963-0.006c-0.308-0.021-0.635-0.057-0.979-0.107
			c-0.551-0.082-1.04-0.215-1.467-0.4s-0.768-0.404-1.022-0.656c-0.255-0.25-0.439-0.521-0.553-0.816
			c-0.114-0.293-0.147-0.594-0.103-0.9c0.093-0.629,0.526-1.068,1.3-1.314c-0.26-0.184-0.453-0.412-0.579-0.684
			c-0.125-0.271-0.163-0.582-0.111-0.934c0.058-0.391,0.223-0.729,0.496-1.014c0.273-0.287,0.612-0.473,1.016-0.563
			c-0.304-0.289-0.525-0.621-0.664-0.994c-0.139-0.373-0.176-0.783-0.11-1.229c0.055-0.371,0.17-0.695,0.345-0.971
			c0.176-0.277,0.39-0.496,0.644-0.658s0.547-0.285,0.881-0.367c0.333-0.084,0.678-0.127,1.034-0.131s0.732,0.023,1.13,0.082
			c0.916,0.137,1.674,0.402,2.276,0.799c0.173-0.148,0.311-0.293,0.415-0.432c-0.359-0.076-0.644-0.268-0.855-0.57
			C80.638,131.748,80.56,131.412,80.614,131.045z M76.572,140.221c-0.368,0.189-0.578,0.453-0.628,0.795
			c-0.051,0.346,0.022,0.594,0.22,0.742c0.197,0.148,0.603,0.268,1.217,0.359c1.391,0.205,2.138-0.041,2.241-0.736
			c0.026-0.174-0.023-0.344-0.147-0.51s-0.272-0.262-0.446-0.287L76.572,140.221z M78.899,133.635
			c-0.409-0.061-0.746,0.01-1.011,0.211c-0.265,0.201-0.43,0.521-0.496,0.965c-0.066,0.447-0.001,0.811,0.194,1.094
			c0.195,0.281,0.496,0.453,0.901,0.512c0.403,0.061,0.74-0.018,1.01-0.234c0.271-0.217,0.438-0.545,0.503-0.984
			c0.065-0.438-0.001-0.793-0.198-1.064C79.606,133.859,79.305,133.695,78.899,133.635z"/>
		<path display="inline" fill="#2E2E2E" d="M88.225,137.715c0.033,0.34,0.094,0.643,0.183,0.906c0.089,0.266,0.196,0.482,0.32,0.65
			s0.268,0.305,0.431,0.412s0.33,0.184,0.5,0.225c0.171,0.043,0.354,0.063,0.547,0.061c0.617-0.01,1.098-0.139,1.441-0.383
			s0.615-0.617,0.814-1.117l1.176,0.385c-0.102,0.285-0.23,0.555-0.389,0.809c-0.159,0.252-0.352,0.486-0.576,0.701
			s-0.477,0.4-0.754,0.555c-0.277,0.156-0.59,0.279-0.94,0.369c-0.351,0.092-0.72,0.139-1.11,0.146
			c-0.576,0.008-1.123-0.084-1.641-0.277s-0.969-0.469-1.354-0.824s-0.692-0.797-0.922-1.324c-0.229-0.525-0.35-1.102-0.36-1.725
			c-0.01-0.625,0.091-1.205,0.304-1.746c0.212-0.539,0.505-0.996,0.879-1.369c0.373-0.375,0.815-0.67,1.326-0.885
			c0.511-0.217,1.054-0.33,1.632-0.34c0.576-0.01,1.124,0.086,1.642,0.285c0.518,0.201,0.969,0.48,1.354,0.842
			c0.385,0.361,0.692,0.809,0.922,1.342c0.23,0.531,0.35,1.109,0.36,1.734l-0.103,0.477L88.225,137.715z M88.233,136.309
			l3.103-0.051c-0.088-0.672-0.264-1.16-0.529-1.463c-0.266-0.305-0.614-0.453-1.045-0.445c-0.214,0.004-0.405,0.041-0.574,0.113
			c-0.168,0.07-0.318,0.184-0.451,0.336c-0.133,0.154-0.241,0.355-0.326,0.607C88.324,135.658,88.266,135.959,88.233,136.309z"/>
		<path display="inline" fill="#2E2E2E" d="M101.945,131.627c0.402-0.074,0.766-0.086,1.089-0.033s0.599,0.156,0.827,0.313
			s0.431,0.369,0.605,0.643s0.317,0.574,0.428,0.902c0.111,0.33,0.207,0.713,0.289,1.146l0.614,3.283l0.864-0.162l0.258,1.383
			l-4.146,0.777l-0.258-1.383l0.863-0.162l-0.646-3.455c-0.086-0.455-0.193-0.803-0.322-1.041c-0.129-0.236-0.28-0.389-0.452-0.455
			s-0.39-0.074-0.655-0.025c-0.242,0.045-0.471,0.193-0.686,0.445s-0.402,0.582-0.561,0.99l0.73,4.025l0.863-0.16l0.26,1.381
			l-4.146,0.777l-0.26-1.383l0.864-0.162l-0.97-5.184l-0.864,0.162l-0.259-1.383l2.683-0.502l0.823,1.059
			c0.07-0.213,0.162-0.41,0.272-0.59s0.251-0.354,0.422-0.518s0.38-0.307,0.63-0.424
			C101.354,131.773,101.634,131.686,101.945,131.627z"/>
		<path display="inline" fill="#2E2E2E" d="M108.934,128.105l0.83-0.287l0.574,1.662l2.326-0.803l0.459,1.328l-2.326,0.805
			l1.492,4.32c0.064,0.188,0.172,0.326,0.322,0.418c0.151,0.09,0.342,0.096,0.571,0.016c0.258-0.088,0.446-0.248,0.568-0.482
			c0.121-0.232,0.149-0.518,0.085-0.857l1.054-0.18c0.07,0.34,0.095,0.666,0.071,0.982c-0.021,0.316-0.09,0.615-0.205,0.895
			c-0.113,0.279-0.289,0.529-0.524,0.748s-0.524,0.387-0.864,0.506c-0.828,0.285-1.545,0.316-2.15,0.094
			c-0.605-0.225-1.023-0.67-1.254-1.336l-1.492-4.32l-0.83,0.287l-0.459-1.33l0.166-0.057c0.426-0.148,0.761-0.4,1.003-0.756
			C108.594,129.4,108.787,128.852,108.934,128.105z"/>
		<path display="inline" fill="#2E2E2E" d="M119.73,130.496c0.181,0.289,0.37,0.533,0.569,0.73c0.198,0.195,0.392,0.342,0.577,0.436
			c0.188,0.094,0.377,0.152,0.57,0.176c0.194,0.023,0.377,0.016,0.549-0.023s0.343-0.104,0.514-0.191
			c0.549-0.287,0.921-0.617,1.117-0.988c0.197-0.373,0.273-0.828,0.227-1.365l1.223-0.184c0.039,0.301,0.044,0.6,0.016,0.896
			c-0.027,0.297-0.094,0.592-0.199,0.885c-0.104,0.293-0.246,0.572-0.424,0.834c-0.178,0.264-0.403,0.516-0.676,0.752
			c-0.271,0.238-0.581,0.449-0.926,0.629c-0.512,0.268-1.042,0.432-1.592,0.49c-0.549,0.059-1.076,0.016-1.58-0.129
			s-0.977-0.4-1.418-0.77c-0.441-0.367-0.807-0.826-1.096-1.381c-0.289-0.553-0.46-1.117-0.513-1.695
			c-0.052-0.578,0.005-1.117,0.171-1.619c0.166-0.5,0.428-0.963,0.787-1.385c0.359-0.424,0.795-0.768,1.307-1.035
			s1.043-0.428,1.595-0.482s1.081-0.006,1.588,0.145s0.982,0.412,1.427,0.783c0.444,0.373,0.811,0.836,1.1,1.389l0.123,0.473
			L119.73,130.496z M119.105,129.236l2.75-1.438c-0.38-0.561-0.756-0.918-1.13-1.07s-0.751-0.127-1.133,0.072
			c-0.19,0.098-0.344,0.219-0.462,0.357c-0.119,0.141-0.203,0.309-0.253,0.504c-0.05,0.197-0.056,0.426-0.019,0.689
			S118.979,128.91,119.105,129.236z"/>
	</g>
	<g display="none">
		<path display="inline" fill="none" d="M15.324,47.142c0-40.553,32.873-73.426,73.424-73.426c40.553,0,73.43,32.873,73.43,73.426"
			/>
		<path display="inline" fill="#2E2E2E" d="M35.477-18.427l8.282-5.946l2.05,2.856l-1.285,0.923l-0.41-0.571
			c-0.084-0.117-0.18-0.229-0.289-0.339c-0.109-0.109-0.228-0.21-0.357-0.302c-0.129-0.091-0.26-0.147-0.395-0.168
			c-0.134-0.021-0.251,0.004-0.351,0.076l-1.142,0.82l4.716,6.568l1.142-0.82l0.82,1.143l-4.569,3.28l-0.82-1.143l1.143-0.82
			l-4.716-6.568l-1.143,0.82c-0.1,0.072-0.161,0.175-0.184,0.309s-0.012,0.276,0.034,0.427c0.045,0.151,0.103,0.297,0.171,0.435
			c0.069,0.139,0.145,0.266,0.229,0.383l0.41,0.571l-1.285,0.922L35.477-18.427z"/>
		<path display="inline" fill="#2E2E2E" d="M48.325-23.758L50.754-25l0.979,0.698c0.084-0.974,0.549-1.678,1.395-2.109
			c0.566-0.289,1.104-0.345,1.615-0.167c0.511,0.179,0.908,0.545,1.192,1.101c0.177,0.348,0.206,0.705,0.087,1.073
			c-0.119,0.369-0.352,0.642-0.699,0.819c-0.347,0.178-0.705,0.207-1.073,0.087c-0.369-0.119-0.642-0.352-0.819-0.699
			c-0.072-0.141-0.119-0.287-0.142-0.44c-0.092-0.006-0.177,0.012-0.255,0.052c-0.175,0.089-0.297,0.295-0.367,0.619
			c-0.07,0.323-0.075,0.756-0.015,1.298l1.687,3.338l1.722-0.88l0.64,1.252l-4.695,2.4l-0.64-1.252l0.783-0.4l-2.4-4.695l-0.783,0.4
			L48.325-23.758z"/>
		<path display="inline" fill="#2E2E2E" d="M65.755-28.242l1.29,3.669l0.829-0.291l0.466,1.327l-2.583,0.907l-0.672-0.732
			c-0.14,0.502-0.37,0.894-0.689,1.174c-0.319,0.279-0.813,0.536-1.479,0.771c-0.345,0.121-0.688,0.174-1.027,0.158
			s-0.65-0.091-0.931-0.225c-0.282-0.134-0.532-0.325-0.751-0.574c-0.22-0.249-0.387-0.539-0.504-0.871
			c-0.201-0.572-0.144-1.126,0.171-1.66c0.315-0.535,0.821-0.925,1.518-1.169c0.561-0.197,1.044-0.308,1.449-0.33
			c0.405-0.022,0.779,0.036,1.124,0.176l-0.618-1.758c-0.087-0.249-0.194-0.445-0.321-0.588c-0.126-0.144-0.273-0.236-0.44-0.279
			c-0.167-0.042-0.341-0.052-0.522-0.028s-0.389,0.076-0.625,0.159c-0.188,0.065-0.344,0.166-0.467,0.299
			c0.148,0.15,0.258,0.324,0.328,0.523c0.129,0.367,0.11,0.726-0.058,1.075c-0.167,0.35-0.435,0.588-0.803,0.718
			c-0.368,0.129-0.726,0.109-1.075-0.058c-0.35-0.168-0.588-0.436-0.718-0.804c-0.066-0.188-0.091-0.377-0.077-0.569
			c0.015-0.191,0.065-0.372,0.152-0.542c0.07-0.155,0.148-0.3,0.234-0.434c0.086-0.135,0.204-0.28,0.352-0.437
			c0.148-0.155,0.318-0.302,0.51-0.438c0.191-0.136,0.429-0.274,0.713-0.416s0.603-0.274,0.957-0.398
			c0.458-0.161,0.914-0.245,1.365-0.252c0.451-0.006,0.865,0.06,1.243,0.197c0.377,0.138,0.712,0.353,1.004,0.644
			C65.392-29.006,65.61-28.654,65.755-28.242z M64.542-24.271l-0.201-0.572c-0.229-0.103-0.47-0.172-0.724-0.209
			c-0.253-0.036-0.471-0.022-0.654,0.041c-0.393,0.138-0.646,0.301-0.76,0.488c-0.114,0.188-0.12,0.428-0.017,0.721
			c0.124,0.352,0.283,0.586,0.479,0.703c0.197,0.117,0.483,0.109,0.859-0.022c0.213-0.075,0.411-0.221,0.593-0.439
			C64.301-23.779,64.442-24.016,64.542-24.271z"/>
		<path display="inline" fill="#2E2E2E" d="M74.604-33.335c0.403-0.076,0.766-0.088,1.089-0.035
			c0.323,0.052,0.599,0.155,0.828,0.311c0.229,0.155,0.431,0.368,0.606,0.641s0.318,0.573,0.43,0.903
			c0.111,0.329,0.208,0.711,0.291,1.146l0.621,3.281l0.864-0.163l0.261,1.382l-4.145,0.784l-0.262-1.382l0.864-0.163l-0.653-3.455
			c-0.086-0.454-0.194-0.801-0.324-1.038c-0.13-0.238-0.281-0.39-0.453-0.456c-0.172-0.065-0.391-0.073-0.655-0.023
			c-0.242,0.046-0.47,0.194-0.685,0.447c-0.214,0.252-0.401,0.582-0.559,0.991l0.739,4.024l0.864-0.164l0.261,1.382l-4.146,0.784
			l-0.261-1.382l0.864-0.163l-0.98-5.182l-0.864,0.163l-0.261-1.382l2.681-0.507l0.826,1.056c0.07-0.213,0.16-0.409,0.271-0.59
			s0.251-0.354,0.421-0.519c0.17-0.164,0.379-0.306,0.628-0.425C74.014-33.187,74.293-33.275,74.604-33.335z"/>
		<path display="inline" fill="#2E2E2E" d="M84.209-27.561c0.172,0.106,0.426,0.151,0.763,0.136
			c0.301-0.014,0.546-0.043,0.733-0.087c0.187-0.043,0.327-0.107,0.42-0.192s0.153-0.178,0.181-0.277
			c0.028-0.1,0.038-0.229,0.031-0.386c-0.009-0.188-0.066-0.347-0.172-0.477c-0.105-0.13-0.245-0.231-0.419-0.306
			c-0.173-0.074-0.372-0.138-0.594-0.19c-0.223-0.053-0.457-0.103-0.702-0.147c-0.246-0.046-0.491-0.098-0.737-0.155
			s-0.481-0.138-0.706-0.24s-0.426-0.227-0.603-0.372c-0.177-0.146-0.321-0.34-0.432-0.581s-0.174-0.521-0.188-0.84
			c-0.014-0.293,0.009-0.561,0.068-0.804s0.143-0.452,0.252-0.626s0.25-0.327,0.423-0.462c0.173-0.134,0.354-0.243,0.546-0.328
			c0.191-0.085,0.408-0.157,0.65-0.215c0.242-0.059,0.477-0.101,0.705-0.128c0.228-0.026,0.476-0.046,0.745-0.059
			c0.585-0.027,1.1,0.024,1.544,0.153s0.798,0.313,1.062,0.553c0.14,0.108,0.251,0.242,0.333,0.4
			c0.082,0.159,0.128,0.329,0.136,0.511c0.016,0.34-0.091,0.635-0.32,0.886c-0.229,0.252-0.513,0.385-0.853,0.4
			c-0.339,0.016-0.635-0.091-0.886-0.319s-0.384-0.513-0.4-0.853c-0.005-0.123,0.007-0.242,0.037-0.358
			c-0.172-0.106-0.427-0.151-0.763-0.136c-0.413,0.019-0.718,0.083-0.917,0.192c-0.199,0.108-0.292,0.298-0.28,0.566
			c0.008,0.17,0.058,0.318,0.148,0.444s0.211,0.228,0.361,0.305c0.15,0.076,0.325,0.147,0.522,0.213
			c0.198,0.065,0.408,0.119,0.63,0.16c0.222,0.041,0.45,0.093,0.685,0.155c0.234,0.063,0.463,0.127,0.686,0.192
			c0.223,0.066,0.435,0.157,0.635,0.272s0.377,0.247,0.531,0.396s0.278,0.337,0.374,0.565s0.15,0.486,0.163,0.773
			c0.019,0.409-0.032,0.773-0.153,1.091c-0.122,0.318-0.292,0.579-0.51,0.783c-0.218,0.203-0.492,0.374-0.823,0.511
			c-0.331,0.137-0.677,0.237-1.037,0.301c-0.361,0.063-0.764,0.106-1.208,0.127c-0.898,0.041-1.63-0.097-2.195-0.413
			c-0.564-0.317-0.861-0.777-0.889-1.38c-0.016-0.34,0.091-0.635,0.32-0.886c0.229-0.251,0.513-0.385,0.853-0.4
			c0.339-0.016,0.635,0.091,0.886,0.319c0.251,0.229,0.385,0.514,0.4,0.853C84.251-27.796,84.239-27.677,84.209-27.561z"/>
		<path display="inline" fill="#2E2E2E" d="M97.661-34.103c0.683,0.063,1.245,0.292,1.688,0.687
			c0.443,0.394,0.751,0.915,0.925,1.564c0.174,0.648,0.22,1.406,0.14,2.272c-0.059,0.633-0.194,1.204-0.408,1.714
			c-0.213,0.51-0.484,0.932-0.814,1.264c-0.33,0.333-0.713,0.578-1.149,0.736s-0.905,0.214-1.403,0.168
			c-0.252-0.023-0.485-0.067-0.703-0.134c-0.217-0.065-0.401-0.14-0.551-0.221c-0.15-0.082-0.291-0.179-0.421-0.291
			c-0.131-0.112-0.235-0.216-0.313-0.312s-0.152-0.201-0.225-0.316l-0.211,2.284l0.875,0.081l-0.131,1.4l-4.2-0.39l0.13-1.4
			l0.875,0.081l0.747-8.051l-0.875-0.081l0.13-1.4l2.6,0.241l0.435,1.068c0.128-0.149,0.272-0.284,0.43-0.401
			C95.855-34.007,96.666-34.195,97.661-34.103z M94.564-28.454c0.275,0.644,0.699,0.992,1.271,1.045
			c0.577,0.054,1.028-0.133,1.352-0.559s0.524-1.055,0.601-1.886c0.037-0.392,0.023-0.757-0.037-1.097
			c-0.061-0.339-0.158-0.626-0.291-0.858c-0.133-0.233-0.293-0.419-0.48-0.559c-0.187-0.14-0.389-0.22-0.604-0.239
			c-0.292-0.027-0.559,0.029-0.8,0.171c-0.241,0.141-0.476,0.361-0.703,0.66L94.564-28.454z"/>
		<path display="inline" fill="#2E2E2E" d="M106.781-32.228c0.548-0.073,1.102-0.04,1.662,0.099s1.065,0.368,1.516,0.688
			c0.451,0.319,0.816,0.701,1.1,1.144c0.283,0.443,0.468,0.948,0.555,1.517c0.088,0.567,0.057,1.154-0.094,1.76
			c-0.15,0.606-0.396,1.14-0.738,1.602c-0.343,0.461-0.742,0.821-1.199,1.081c-0.456,0.26-0.959,0.426-1.506,0.499
			c-0.548,0.072-1.102,0.039-1.662-0.1s-1.065-0.368-1.516-0.688c-0.451-0.319-0.816-0.7-1.098-1.144
			c-0.281-0.442-0.466-0.947-0.553-1.515c-0.088-0.568-0.057-1.155,0.094-1.761s0.396-1.14,0.738-1.601
			c0.343-0.462,0.741-0.822,1.197-1.083C105.732-31.989,106.233-32.155,106.781-32.228z M108.105-30.764
			c-0.199-0.049-0.385-0.064-0.555-0.047c-0.171,0.019-0.338,0.076-0.501,0.175s-0.313,0.241-0.448,0.428
			c-0.135,0.188-0.264,0.43-0.388,0.728c-0.124,0.299-0.236,0.652-0.338,1.063c-0.102,0.409-0.167,0.774-0.197,1.097
			c-0.03,0.321-0.028,0.597,0.004,0.824c0.032,0.229,0.099,0.425,0.196,0.588c0.099,0.163,0.219,0.293,0.361,0.388
			c0.143,0.096,0.313,0.169,0.512,0.218c0.25,0.063,0.48,0.068,0.688,0.019c0.208-0.049,0.407-0.162,0.598-0.338
			c0.19-0.177,0.364-0.434,0.521-0.772c0.157-0.338,0.298-0.756,0.422-1.254c0.123-0.497,0.194-0.933,0.212-1.305
			c0.019-0.373-0.016-0.682-0.101-0.927c-0.086-0.244-0.21-0.438-0.37-0.578C108.561-30.6,108.355-30.701,108.105-30.764z"/>
		<path display="inline" fill="#2E2E2E" d="M115.682-29.908l2.531,1.02l0.114,1.197c0.79-0.575,1.626-0.686,2.507-0.331
			c0.59,0.237,0.984,0.607,1.186,1.11c0.199,0.502,0.184,1.043-0.05,1.621c-0.146,0.361-0.396,0.618-0.753,0.771
			c-0.356,0.151-0.715,0.154-1.076,0.009s-0.619-0.396-0.771-0.753s-0.155-0.715-0.009-1.077c0.059-0.146,0.139-0.278,0.24-0.396
			c-0.057-0.073-0.125-0.126-0.207-0.159c-0.182-0.073-0.418-0.03-0.707,0.13c-0.291,0.159-0.621,0.439-0.99,0.84l-1.414,3.462
			l1.794,0.723l-0.525,1.305l-4.892-1.971l0.525-1.304L114-23.384l1.971-4.892l-0.814-0.328L115.682-29.908z"/>
		<path display="inline" fill="#2E2E2E" d="M128.515-26.039l0.769,0.426l-0.852,1.537l2.152,1.193l-0.682,1.229l-2.152-1.192
			l-2.215,3.998c-0.097,0.174-0.129,0.348-0.096,0.52c0.034,0.173,0.157,0.318,0.369,0.436c0.238,0.132,0.484,0.166,0.738,0.101
			s0.486-0.236,0.695-0.512l0.838,0.665c-0.205,0.278-0.432,0.515-0.682,0.71c-0.25,0.194-0.518,0.343-0.803,0.444
			c-0.283,0.103-0.586,0.139-0.906,0.11c-0.321-0.028-0.639-0.13-0.955-0.305c-0.766-0.425-1.268-0.937-1.507-1.536
			s-0.188-1.208,0.155-1.826l2.215-3.997l-0.77-0.427l0.682-1.229l0.154,0.085c0.395,0.219,0.805,0.299,1.232,0.241
			C127.324-25.427,127.863-25.65,128.515-26.039z"/>
		<path display="inline" fill="#2E2E2E" d="M133.106-15.755c-0.181,0.289-0.315,0.566-0.405,0.831
			c-0.09,0.266-0.136,0.502-0.139,0.711s0.027,0.405,0.092,0.59c0.064,0.184,0.152,0.345,0.262,0.481
			c0.11,0.138,0.243,0.264,0.398,0.379c0.498,0.366,0.957,0.557,1.379,0.57c0.421,0.014,0.863-0.118,1.326-0.396l0.701,1.02
			c-0.254,0.166-0.521,0.302-0.8,0.407c-0.279,0.104-0.573,0.175-0.883,0.209s-0.621,0.029-0.936-0.016
			c-0.315-0.044-0.64-0.137-0.973-0.276c-0.333-0.141-0.657-0.326-0.971-0.558c-0.464-0.342-0.844-0.747-1.138-1.215
			s-0.486-0.96-0.578-1.476c-0.09-0.517-0.067-1.054,0.069-1.612c0.136-0.558,0.39-1.088,0.76-1.591
			c0.37-0.502,0.804-0.903,1.3-1.204c0.496-0.3,1.006-0.486,1.529-0.557c0.523-0.071,1.054-0.038,1.591,0.1
			c0.538,0.138,1.038,0.377,1.503,0.72s0.842,0.75,1.133,1.223c0.291,0.472,0.479,0.969,0.566,1.49
			c0.088,0.521,0.062,1.063-0.078,1.625c-0.141,0.563-0.395,1.096-0.766,1.599l-0.369,0.316L133.106-15.755z M133.965-16.869
			l2.498,1.841c0.339-0.588,0.494-1.083,0.467-1.485s-0.215-0.731-0.561-0.986c-0.173-0.127-0.348-0.213-0.525-0.259
			c-0.178-0.045-0.365-0.047-0.563-0.006c-0.198,0.042-0.407,0.137-0.628,0.285C134.432-17.33,134.203-17.127,133.965-16.869z"/>
	</g>
	<g display="none">
		<path display="inline" d="M138.662,74.835c2.045-2.691,2.845-6.969,1.991-10.645c-0.149-0.635-0.604-1.156-1.213-1.387
			c-0.534-0.201-1.089-0.301-1.647-0.328c0.311-0.463,0.598-0.965,0.836-1.529c1.25-3.146,0.832-7.495-1.037-10.821
			c-0.324-0.574-0.915-0.947-1.574-0.992c-1.475-0.102-2.794,0.342-3.883,1.266c-0.139-1.469-0.564-2.983-1.31-4.418
			c-1.759-3.271-4.847-5.488-7.869-5.65c-0.97-0.061-1.808,0.598-2.014,1.533c-0.575,2.623-0.029,5.668,1.521,8.549
			c0.525,1.016,1.156,1.945,1.855,2.773c-1.218,0.123-2.398,0.582-3.375,1.359c-0.542,0.432-0.814,1.119-0.717,1.805
			c0.41,2.867,1.719,5.429,3.652,7.183c0.034,0.033,0.07,0.061,0.105,0.092c-0.178,0.055-0.355,0.115-0.533,0.186
			c-0.648,0.26-1.109,0.846-1.209,1.537c-0.42,2.918,0.131,5.76,1.52,7.947c0.029,0.049,0.064,0.092,0.092,0.141
			c-0.183,0.004-0.361-0.01-0.547,0.01c-0.689,0.068-1.289,0.498-1.581,1.125c-1.214,2.621-1.466,5.504-0.729,8.055
			c0.015,0.055,0.036,0.104,0.052,0.158c-0.189-0.051-0.373-0.115-0.57-0.148c-0.672-0.109-1.354,0.129-1.803,0.643
			c-1.873,2.145-2.924,4.836-2.956,7.58c0,0.037,0.007,0.07,0.007,0.105c-0.171-0.102-0.343-0.195-0.517-0.277
			c-0.616-0.293-1.343-0.244-1.911,0.133c-2.386,1.566-4.13,3.863-4.926,6.504c-0.008,0.031-0.012,0.059-0.02,0.09
			c-0.136-0.143-0.258-0.295-0.408-0.428c-0.516-0.455-1.232-0.604-1.887-0.398c-2.703,0.861-5.003,2.58-6.521,4.914
			c-0.008,0.014-0.014,0.029-0.022,0.045c-0.088-0.172-0.161-0.344-0.264-0.51c-0.37-0.59-1.011-0.953-1.723-0.916
			c-2.796,0.094-5.474,1.104-7.572,2.873c-0.468,0.414-0.858,0.861-1.209,1.324c-0.358-0.473-0.759-0.932-1.239-1.355
			c-2.065-1.738-4.74-2.748-7.537-2.842c-0.712-0.039-1.352,0.326-1.722,0.916c-0.104,0.166-0.179,0.344-0.267,0.516
			c-0.025-0.041-0.04-0.08-0.064-0.123c-1.476-2.264-3.775-3.98-6.477-4.842c-0.653-0.205-1.371-0.057-1.887,0.398
			c-0.151,0.135-0.274,0.285-0.411,0.428c-0.011-0.043-0.015-0.086-0.028-0.131c-0.784-2.6-2.529-4.896-4.912-6.463
			c-0.57-0.377-1.295-0.426-1.912-0.133c-0.175,0.082-0.347,0.176-0.517,0.277c0.001-0.037,0.007-0.072,0.006-0.111
			c-0.034-2.742-1.085-5.432-2.958-7.576c-0.448-0.512-1.127-0.75-1.802-0.641c-0.195,0.033-0.377,0.098-0.565,0.146
			c0.01-0.033,0.021-0.063,0.031-0.096c0.756-2.609,0.503-5.49-0.71-8.115c-0.291-0.627-0.892-1.057-1.581-1.125
			c-0.186-0.018-0.364-0.006-0.547-0.01c0.019-0.031,0.041-0.057,0.059-0.086c1.42-2.242,1.971-5.082,1.552-8
			c-0.099-0.693-0.562-1.279-1.211-1.539c-0.175-0.07-0.354-0.131-0.53-0.186c0.022-0.02,0.047-0.037,0.068-0.059
			c1.971-1.789,3.279-4.351,3.688-7.216c0.098-0.688-0.176-1.373-0.718-1.805c-0.976-0.777-2.156-1.234-3.373-1.357
			c0.696-0.824,1.319-1.746,1.841-2.748c1.564-2.909,2.109-5.954,1.534-8.577c-0.206-0.934-1.063-1.584-2.013-1.533
			c-3.021,0.158-6.109,2.377-7.883,5.676c-0.736,1.418-1.159,2.92-1.299,4.381c-1.084-0.914-2.404-1.359-3.883-1.254
			c-0.658,0.045-1.25,0.418-1.573,0.994c-1.87,3.326-2.286,7.676-1.02,10.858c0.233,0.549,0.512,1.039,0.815,1.492
			c-0.558,0.025-1.109,0.125-1.643,0.326c-0.609,0.232-1.064,0.752-1.213,1.387c-0.854,3.676-0.055,7.951,2.023,10.688
			c0.387,0.48,0.779,0.867,1.17,1.201c-0.533,0.18-1.039,0.443-1.498,0.789c-0.525,0.393-0.816,1.023-0.778,1.678
			c0.224,3.857,2.126,7.662,4.895,9.732c0.497,0.346,0.998,0.609,1.501,0.832c-0.452,0.313-0.874,0.678-1.23,1.137
			c-0.412,0.527-0.524,1.229-0.299,1.857c1.311,3.678,4.203,6.801,7.373,7.957c0.563,0.203,1.122,0.34,1.672,0.42
			c-0.334,0.414-0.627,0.869-0.842,1.396c-0.252,0.617-0.172,1.322,0.213,1.867c2.254,3.189,5.896,5.398,9.244,5.627
			c0.256,0.021,0.504,0.033,0.747,0.033c0.345,0,0.677-0.033,1.005-0.076c-0.205,0.488-0.361,1.004-0.422,1.568
			c-0.071,0.662,0.198,1.313,0.714,1.729c2.38,1.93,5.521,3.082,8.403,3.082l0,0c0.729,0,1.435-0.076,2.02-0.207
			c0.629-0.111,1.193-0.287,1.707-0.506c-0.061,0.525-0.068,1.063,0.032,1.613c0.118,0.643,0.552,1.186,1.153,1.443
			c1.705,0.732,3.609,1.119,5.503,1.119h0.001c2.025,0,3.893-0.447,5.359-1.268c0.9-0.479,1.646-1.066,2.233-1.727
			c0.579,0.654,1.313,1.234,2.2,1.705c1.506,0.842,3.372,1.289,5.398,1.289c1.895,0,3.797-0.387,5.504-1.119
			c0.602-0.258,1.034-0.799,1.152-1.441c0.102-0.549,0.094-1.082,0.034-1.604c0.493,0.205,1.03,0.371,1.628,0.479
			c0.662,0.146,1.369,0.223,2.098,0.223l0,0c2.883,0,6.024-1.152,8.404-3.082c0.516-0.416,0.784-1.066,0.713-1.729
			c-0.061-0.564-0.217-1.08-0.423-1.568c0.329,0.043,0.661,0.076,1.007,0.076l0,0c0.242,0,0.49-0.012,0.711-0.031
			c3.384-0.23,7.025-2.439,9.279-5.629c0.385-0.545,0.467-1.25,0.215-1.867c-0.215-0.523-0.496-0.986-0.826-1.4
			c0.545-0.08,1.097-0.215,1.656-0.418c3.166-1.152,6.061-4.275,7.372-7.953c0.224-0.631,0.11-1.332-0.3-1.859
			c-0.357-0.461-0.775-0.828-1.225-1.143c0.512-0.23,1.025-0.502,1.543-0.863c2.719-2.031,4.621-5.836,4.848-9.695
			c0.039-0.654-0.254-1.285-0.779-1.68c-0.461-0.346-0.968-0.609-1.503-0.789C137.856,75.733,138.262,75.335,138.662,74.835z
			 M46.314,66.11c-0.129,0.18-0.236,0.377-0.354,0.566c-0.096-0.164-0.179-0.334-0.283-0.496c-0.195-0.324-0.405-0.623-0.623-0.906
			c0.316-0.023,0.636-0.068,0.953-0.145c0.278,0.135,0.566,0.244,0.859,0.33C46.676,65.665,46.492,65.882,46.314,66.11z
			 M46.848,76.917c0.309,0.053,0.621,0.086,0.932,0.088c-0.116,0.232-0.236,0.457-0.33,0.705c-0.092,0.227-0.154,0.467-0.225,0.701
			c-0.135-0.137-0.266-0.283-0.405-0.412c-0.278-0.252-0.562-0.477-0.849-0.686C46.271,77.206,46.563,77.075,46.848,76.917z
			 M50.922,88.003c0.304-0.035,0.602-0.086,0.889-0.166c-0.046,0.26-0.096,0.518-0.111,0.787c-0.023,0.236-0.014,0.479-0.016,0.719
			c-0.182-0.102-0.361-0.211-0.547-0.303c-0.326-0.152-0.648-0.268-0.97-0.381C50.435,88.466,50.685,88.243,50.922,88.003z
			 M58.802,97.933c0.044,0.232,0.119,0.459,0.186,0.688c-0.21-0.049-0.419-0.104-0.628-0.143c-0.357-0.055-0.698-0.076-1.037-0.096
			c0.205-0.26,0.393-0.539,0.557-0.838c0.275-0.117,0.543-0.242,0.792-0.393C58.701,97.407,58.74,97.667,58.802,97.933z
			 M67.184,104.813c0.245-0.195,0.475-0.402,0.681-0.625c0.099,0.25,0.196,0.502,0.327,0.744c0.103,0.203,0.234,0.395,0.358,0.592
			c-0.202,0.01-0.405,0.023-0.62,0.045c-0.361,0.045-0.699,0.115-1.033,0.188C67.018,105.458,67.111,105.142,67.184,104.813z
			 M78.156,109.212c0.179-0.258,0.34-0.52,0.476-0.791c0.166,0.223,0.331,0.447,0.527,0.658c0.153,0.162,0.325,0.313,0.495,0.463
			c-0.18,0.064-0.363,0.121-0.535,0.191c-0.35,0.139-0.67,0.299-0.983,0.463C78.17,109.864,78.178,109.534,78.156,109.212z
			 M98.391,109.737c-0.177-0.072-0.363-0.129-0.545-0.193c0.174-0.154,0.35-0.311,0.508-0.477c0.193-0.205,0.352-0.426,0.516-0.645
			c0.135,0.27,0.296,0.531,0.476,0.787c-0.022,0.324-0.016,0.654,0.019,0.986C99.053,110.032,98.736,109.874,98.391,109.737z
			 M108.948,105.532c0.114-0.182,0.239-0.361,0.335-0.551c0.14-0.26,0.246-0.527,0.35-0.795c0.207,0.223,0.437,0.432,0.682,0.627
			c0.073,0.328,0.167,0.646,0.291,0.947c-0.352-0.078-0.708-0.15-1.089-0.197C109.329,105.546,109.139,105.544,108.948,105.532z
			 M118.822,97.146c0.252,0.152,0.522,0.281,0.802,0.398c0.16,0.297,0.346,0.572,0.548,0.83c-0.346,0.021-0.705,0.055-1.104,0.115
			c-0.184,0.033-0.367,0.084-0.551,0.127c0.056-0.201,0.125-0.4,0.163-0.602C118.748,97.718,118.791,97.431,118.822,97.146z
			 M126.306,89.067c-0.163,0.082-0.324,0.18-0.484,0.27c-0.003-0.215,0.008-0.43-0.014-0.641c-0.017-0.295-0.069-0.578-0.12-0.859
			c0.289,0.08,0.586,0.131,0.891,0.166c0.238,0.24,0.488,0.465,0.756,0.658C126.996,88.78,126.656,88.905,126.306,89.067z
			 M131.494,65.13c0.314,0.076,0.629,0.121,0.945,0.145c-0.209,0.271-0.407,0.559-0.594,0.865c-0.113,0.176-0.204,0.359-0.308,0.541
			c-0.123-0.201-0.237-0.412-0.376-0.6c-0.167-0.221-0.343-0.426-0.525-0.621C130.928,65.372,131.215,65.265,131.494,65.13z
			 M130.656,78.021c-0.129,0.123-0.254,0.258-0.379,0.389c-0.066-0.221-0.123-0.445-0.209-0.658
			c-0.101-0.264-0.227-0.502-0.35-0.746c0.313-0.002,0.625-0.035,0.934-0.088c0.285,0.158,0.578,0.289,0.879,0.398
			C131.235,77.532,130.943,77.761,130.656,78.021z"/>
		<g display="inline">
			<g>
				<path fill="#157E35" d="M48.397,46.908c1.532-2.852,4.118-4.514,6.249-4.625c0.475,2.166-0.02,4.764-1.346,7.229
					c-1.285,2.482-3.188,4.338-5.215,5.172C46.951,52.846,46.905,49.777,48.397,46.908z"/>
				<g>
					<g>
						<path fill="#157E35" d="M45.961,55.004c-0.788-2.566-2.265-4.061-4.35-3.92c-1.586,2.824-1.963,6.523-0.923,9.141
							c1.121,2.649,3.093,3.499,5.022,2.976C46.476,60.524,46.662,57.559,45.961,55.004z"/>
						<path fill="#FFFFFF" d="M49.674,56.146c1.938-1.541,4.184-1.252,5.663-0.072c-0.323,2.268-1.317,4.458-3.065,6.042
							c-1.654,1.578-3.801,2.109-5.549,1.195C46.496,60.583,47.656,57.639,49.674,56.146z"/>
					</g>
					<g>
						<path fill="#FFFFFF" d="M44.006,67.194c-1.361-2.244-3.367-3.275-5.254-2.563c-0.729,3.145-0.05,6.791,1.643,9.02
							c1.803,2.242,3.932,2.52,5.645,1.488C46.018,72.356,45.453,69.452,44.006,67.194z"/>
						<path fill="#FFFFFF" d="M47.893,67.269c1.539-2.016,3.605-2.371,5.43-1.643c0.328,2.279,0,4.674-1.268,6.676
							c-1.161,1.969-3.078,3.068-5.01,2.67C46.053,72.409,46.433,69.257,47.893,67.269z"/>
					</g>
					<g>
						<path fill="#FFFFFF" d="M45.506,79.446c-1.959-1.775-4.184-2.221-5.789-1.014c0.188,3.23,1.813,6.559,4.064,8.242
							c2.359,1.65,4.51,1.314,5.854-0.146C48.855,83.864,47.419,81.247,45.506,79.446z"/>
						<path fill="#FFFFFF" d="M49.26,78.448c0.896-2.35,2.773-3.254,4.74-3.057c0.968,2.09,1.268,4.471,0.607,6.748
							c-0.563,2.213-2.072,3.789-4.055,3.949C48.904,83.903,48.307,80.788,49.26,78.448z"/>
					</g>
					<g>
						<path fill="#157E35" d="M50.314,90.813c-2.434-1.127-4.566-1.004-5.843,0.635c1.085,3.043,3.543,5.807,6.2,6.775
							c2.674,0.971,4.697,0.012,5.568-1.744C54.766,94.122,52.674,92.005,50.314,90.813z"/>
						<path fill="#157E35" d="M53.645,88.815c0.149-2.477,1.826-3.934,3.705-4.252c1.518,1.734,2.445,3.961,2.475,6.313
							c0.023,2.32-0.943,4.209-2.823,4.926C54.822,94.146,53.398,91.317,53.645,88.815z"/>
					</g>
					<g>
						<path fill="#157E35" d="M58.072,100.411c-2.668-0.396-4.635,0.262-5.428,2.205c1.863,2.637,4.988,4.615,7.814,4.807
							c2.811,0.242,4.525-1.281,4.865-3.191C63.266,102.358,60.678,100.899,58.072,100.411z"/>
						<path fill="#157E35" d="M60.725,97.573c-0.553-2.4,0.703-4.316,2.404-5.121c1.924,1.264,3.438,3.15,4.114,5.393
							c0.63,2.271,0.251,4.303-1.372,5.527C63.326,102.364,61.188,100.04,60.725,97.573z"/>
					</g>
					<g>
						<path fill="#157E35" d="M68.17,107.511c-2.658,0.328-4.382,1.516-4.605,3.596c2.512,2.035,6.072,3.086,8.848,2.469
							c2.756-0.492,3.99-2.48,3.785-4.391C73.705,107.927,70.814,107.257,68.17,107.511z"/>
						<path fill="#157E35" d="M69.938,104.052c-1.178-2.18-0.506-4.352,0.912-5.602c2.187,0.695,4.158,2.094,5.43,4.045
							c1.216,2.053,1.428,4.068,0.204,5.713C73.766,107.917,71.066,106.292,69.938,104.052z"/>
					</g>
					<g>
						<path fill="#157E35" d="M79.841,111.55c-2.444,0.971-3.791,2.678-3.419,4.705c2.969,1.273,6.688,1.313,9.176-0.08
							c2.508-1.328,3.146-3.357,2.424-5.244C85.271,110.397,82.32,110.55,79.841,111.55z"/>
						<path fill="#157E35" d="M80.58,107.735c-1.721-1.85-1.696-4.033-0.674-5.662c2.282,0.076,4.574,0.895,6.342,2.383
							c1.746,1.545,2.5,3.643,1.778,5.455C85.328,110.372,82.295,109.552,80.58,107.735z"/>
					</g>
				</g>
			</g>
			<g>
				<path fill="#157E35" d="M124.199,49.514c-1.326-2.467-1.822-5.065-1.346-7.231c2.131,0.113,4.717,1.775,6.249,4.625
					c1.491,2.87,1.446,5.938,0.312,7.776C127.385,53.85,125.485,51.994,124.199,49.514z"/>
				<g>
					<g>
						<path fill="#FFFFFF" d="M127.826,56.146c-1.936-1.541-4.184-1.252-5.664-0.072c0.324,2.268,1.319,4.458,3.066,6.042
							c1.654,1.578,3.799,2.109,5.549,1.195C131.002,60.583,129.842,57.639,127.826,56.146z"/>
						<path fill="#157E35" d="M131.539,55.004c0.789-2.566,2.264-4.061,4.348-3.92c1.588,2.824,1.965,6.523,0.924,9.141
							c-1.121,2.649-3.092,3.499-5.021,2.976C131.023,60.524,130.84,57.559,131.539,55.004z"/>
					</g>
					<g>
						<path fill="#FFFFFF" d="M129.608,67.269c-1.541-2.016-3.605-2.371-5.431-1.643c-0.329,2.279,0,4.674,1.27,6.676
							c1.159,1.969,3.078,3.068,5.01,2.67C131.445,72.409,131.068,69.257,129.608,67.269z"/>
						<path fill="#FFFFFF" d="M133.493,67.194c1.362-2.244,3.367-3.275,5.255-2.563c0.73,3.145,0.051,6.791-1.643,9.02
							c-1.804,2.242-3.934,2.52-5.645,1.488C131.482,72.356,132.047,69.452,133.493,67.194z"/>
					</g>
					<g>
						<path fill="#FFFFFF" d="M128.241,78.448c-0.897-2.35-2.774-3.254-4.741-3.057c-0.968,2.09-1.266,4.471-0.607,6.748
							c0.564,2.213,2.072,3.789,4.055,3.949C128.596,83.903,129.193,80.788,128.241,78.448z"/>
						<path fill="#FFFFFF" d="M131.996,79.446c1.957-1.775,4.181-2.221,5.789-1.014c-0.19,3.23-1.814,6.559-4.066,8.242
							c-2.359,1.65-4.512,1.314-5.854-0.146C128.645,83.864,130.08,81.247,131.996,79.446z"/>
					</g>
					<g>
						<path fill="#157E35" d="M123.855,88.815c-0.149-2.477-1.827-3.934-3.705-4.252c-1.516,1.734-2.447,3.961-2.475,6.313
							c-0.023,2.32,0.943,4.209,2.824,4.926C122.678,94.146,124.101,91.317,123.855,88.815z"/>
						<path fill="#157E35" d="M127.186,90.813c2.434-1.127,4.566-1.004,5.842,0.635c-1.085,3.043-3.541,5.807-6.199,6.775
							c-2.674,0.971-4.699,0.012-5.566-1.744C122.734,94.122,124.826,92.005,127.186,90.813z"/>
					</g>
					<g>
						<path fill="#157E35" d="M116.774,97.573c0.556-2.4-0.702-4.316-2.403-5.121c-1.924,1.264-3.438,3.15-4.113,5.393
							c-0.631,2.271-0.25,4.303,1.37,5.527C114.173,102.364,116.314,100.04,116.774,97.573z"/>
						<path fill="#157E35" d="M119.429,100.411c2.665-0.396,4.634,0.262,5.427,2.205c-1.861,2.637-4.989,4.615-7.814,4.807
							c-2.811,0.242-4.525-1.281-4.867-3.191C114.234,102.358,116.824,100.899,119.429,100.411z"/>
					</g>
					<g>
						<path fill="#157E35" d="M107.563,104.052c1.179-2.18,0.504-4.352-0.912-5.602c-2.186,0.695-4.158,2.094-5.43,4.045
							c-1.215,2.053-1.43,4.068-0.205,5.713C103.733,107.917,106.432,106.292,107.563,104.052z"/>
						<path fill="#157E35" d="M109.329,107.511c2.661,0.328,4.382,1.516,4.604,3.596c-2.508,2.035-6.07,3.086-8.846,2.469
							c-2.756-0.492-3.992-2.48-3.783-4.391C103.797,107.927,106.684,107.257,109.329,107.511z"/>
					</g>
					<g>
						<path fill="#157E35" d="M96.922,107.735c1.719-1.85,1.693-4.033,0.672-5.662c-2.283,0.076-4.576,0.895-6.342,2.383
							c-1.747,1.545-2.5,3.643-1.779,5.455C92.173,110.372,95.206,109.552,96.922,107.735z"/>
						<path fill="#157E35" d="M97.659,111.55c2.444,0.971,3.793,2.678,3.42,4.705c-2.97,1.273-6.69,1.313-9.177-0.08
							c-2.51-1.328-3.146-3.357-2.424-5.244C92.229,110.397,95.18,110.55,97.659,111.55z"/>
					</g>
				</g>
			</g>
		</g>
	</g>
	<g>
		<g>
			<path fill="#FFFFFF" d="M149.246,58.84v38.995c-12.932-5.15-33.423-9.924-60.986-9.924c-26.867,0-47.03,4.541-60.004,9.533
				V58.566c17.629-4.941,38.404-7.602,60.004-7.602C110.271,50.965,131.405,53.721,149.246,58.84z"/>
			<path fill="#1A1A1A" d="M150.246,99.31l-1.37-0.545c-9.237-3.68-29.396-9.854-60.616-9.854c-30.49,0-50.457,5.932-59.646,9.467
				l-1.358,0.523V57.809l0.729-0.205c17.833-4.998,38.675-7.639,60.274-7.639c22.035,0,43.219,2.736,61.262,7.914l0.725,0.207V99.31
				z M88.26,86.911c30.096,0,50.073,5.697,59.986,9.463v-36.78c-17.709-4.992-38.43-7.629-59.986-7.629
				c-21.125,0-41.508,2.543-59.004,7.361v36.675C39.104,92.384,58.868,86.911,88.26,86.911z"/>
		</g>
		<g>
			<path fill="none" d="M28.256,83.493c12.974-4.992,33.137-9.533,60.004-9.533c27.563,0,48.055,4.773,60.986,9.924"/>
			<path fill="#1A1A1A" d="M33.828,69.463l5.733-1.547l0.386,1.434l-1.433,0.387l2.224,8.24l1.433-0.387l0.387,1.434l-5.732,1.547
				l-0.387-1.434l1.433-0.387l-2.224-8.24l-1.433,0.387L33.828,69.463z"/>
			<path fill="#1A1A1A" d="M47.729,68.969c0.708-0.147,1.346-0.092,1.913,0.164c0.566,0.257,1.038,0.684,1.412,1.28
				c0.375,0.596,0.656,1.344,0.843,2.243c0.137,0.657,0.17,1.277,0.103,1.862c-0.068,0.584-0.224,1.095-0.466,1.532
				c-0.243,0.437-0.564,0.805-0.965,1.103s-0.862,0.501-1.382,0.609c-0.243,0.05-0.48,0.077-0.713,0.082
				c-0.233,0.004-0.439-0.008-0.618-0.035c-0.18-0.027-0.359-0.073-0.538-0.138c-0.179-0.063-0.329-0.125-0.451-0.186
				c-0.122-0.06-0.246-0.135-0.374-0.226c-0.128-0.09-0.223-0.162-0.287-0.215c-0.063-0.054-0.134-0.116-0.212-0.188l-0.611,1.506
				l-1.204,0.25l-2.037-9.811l-0.908,0.188l-0.302-1.453l3.452-0.717l0.886,4.27c0.08-0.241,0.184-0.468,0.313-0.682
				c0.129-0.213,0.292-0.416,0.487-0.61c0.195-0.193,0.434-0.362,0.717-0.507C47.07,69.149,47.384,69.042,47.729,68.969z
				 M46.158,75.365c0.238,0.339,0.508,0.592,0.811,0.758c0.303,0.166,0.63,0.213,0.981,0.14c0.6-0.125,0.997-0.452,1.191-0.981
				c0.195-0.53,0.203-1.227,0.023-2.09c-0.084-0.405-0.21-0.771-0.376-1.095c-0.167-0.323-0.354-0.582-0.56-0.776
				s-0.425-0.333-0.657-0.416c-0.232-0.082-0.46-0.101-0.684-0.054c-0.333,0.068-0.604,0.231-0.815,0.488s-0.387,0.612-0.53,1.065
				L46.158,75.365z"/>
			<path fill="#1A1A1A" d="M55.726,72.64c0.08,0.352,0.184,0.659,0.314,0.925c0.129,0.266,0.271,0.478,0.424,0.637
				c0.153,0.158,0.322,0.283,0.507,0.373s0.37,0.146,0.554,0.167c0.185,0.021,0.378,0.017,0.58-0.013
				c0.646-0.095,1.131-0.294,1.458-0.596c0.326-0.303,0.559-0.73,0.7-1.282l1.283,0.242c-0.066,0.313-0.166,0.613-0.297,0.899
				c-0.131,0.287-0.3,0.558-0.506,0.813c-0.207,0.255-0.444,0.483-0.713,0.684s-0.581,0.372-0.935,0.515s-0.735,0.244-1.142,0.304
				c-0.603,0.089-1.188,0.066-1.756-0.065c-0.568-0.133-1.078-0.358-1.53-0.678c-0.452-0.32-0.834-0.739-1.146-1.26
				c-0.313-0.52-0.517-1.105-0.612-1.757c-0.096-0.652-0.069-1.274,0.08-1.868c0.148-0.594,0.393-1.112,0.733-1.555
				c0.34-0.441,0.762-0.812,1.267-1.107s1.059-0.488,1.662-0.577c0.603-0.088,1.188-0.063,1.757,0.075s1.08,0.37,1.532,0.696
				c0.453,0.325,0.836,0.751,1.149,1.277c0.313,0.526,0.518,1.115,0.614,1.767l-0.042,0.513L55.726,72.64z M55.542,71.167
				l3.24-0.477c-0.183-0.691-0.435-1.179-0.754-1.46s-0.704-0.389-1.154-0.322c-0.224,0.032-0.418,0.098-0.585,0.196
				c-0.167,0.098-0.309,0.236-0.427,0.414c-0.118,0.179-0.204,0.405-0.259,0.681C55.549,70.475,55.529,70.797,55.542,71.167z"/>
			<path fill="#1A1A1A" d="M62.049,66.874l2.867-0.282l0.692,1.064c0.459-0.925,1.187-1.437,2.184-1.534
				c0.668-0.065,1.218,0.087,1.651,0.46c0.433,0.372,0.681,0.886,0.746,1.541c0.041,0.409-0.069,0.772-0.329,1.088
				c-0.259,0.316-0.594,0.495-1.003,0.535s-0.772-0.069-1.088-0.329c-0.316-0.259-0.495-0.594-0.535-1.003
				c-0.017-0.166-0.006-0.329,0.031-0.487c-0.088-0.041-0.178-0.058-0.271-0.049c-0.206,0.021-0.406,0.177-0.6,0.468
				s-0.366,0.714-0.516,1.27l0.369,3.93l2.031-0.199l0.145,1.477l-5.54,0.546l-0.146-1.478l0.923-0.091l-0.545-5.54l-0.923,0.092
				L62.049,66.874z"/>
			<path fill="#1A1A1A" d="M75.657,62.723l10.015-0.305l0.113,3.709l-1.669,0.051l-0.022-0.741
				c-0.005-0.152-0.023-0.308-0.054-0.468c-0.031-0.159-0.076-0.317-0.135-0.474s-0.141-0.282-0.246-0.38
				c-0.105-0.098-0.222-0.145-0.352-0.141l-3.153,0.097l0.124,4.08l1.669-0.051l-0.051-1.67l1.483-0.045l0.147,4.822l-1.484,0.045
				l-0.051-1.669l-1.669,0.051l0.09,2.968l3.338-0.102c0.129-0.005,0.244-0.059,0.343-0.162c0.099-0.104,0.173-0.234,0.223-0.394
				s0.084-0.32,0.106-0.481s0.03-0.318,0.025-0.47l-0.022-0.742l1.669-0.051l0.113,3.71l-10.201,0.311l-0.045-1.484l1.484-0.045
				l-0.26-8.531l-1.484,0.045L75.657,62.723z"/>
			<path fill="#1A1A1A" d="M91.278,72.491l-0.024,1.484l-4.081-0.066l0.024-1.484l0.886,0.015l2.271-2.746l-2.181-2.819
				l-0.886-0.015l0.024-1.484l4.823,0.079l-0.023,1.483l-0.97-0.016l1.478,1.908l1.533-1.859l-1.113-0.018l0.023-1.484l4.082,0.066
				l-0.024,1.484l-0.928-0.016l-2.271,2.747l2.181,2.819l0.928,0.015l-0.023,1.484l-4.824-0.078l0.024-1.484l0.928,0.015
				l-1.472-1.907l-1.539,1.858L91.278,72.491z"/>
			<path fill="#1A1A1A" d="M104.389,65.752c0.723,0.046,1.323,0.27,1.803,0.672c0.48,0.402,0.821,0.943,1.025,1.622
				c0.203,0.679,0.275,1.477,0.218,2.394c-0.042,0.67-0.169,1.276-0.378,1.821s-0.482,0.997-0.82,1.358
				c-0.337,0.362-0.734,0.633-1.189,0.813c-0.457,0.18-0.948,0.253-1.477,0.22c-0.265-0.017-0.514-0.057-0.744-0.119
				c-0.232-0.063-0.428-0.135-0.589-0.216s-0.312-0.18-0.453-0.294s-0.255-0.22-0.341-0.318c-0.084-0.099-0.167-0.207-0.246-0.327
				l-0.152,2.417l0.926,0.058l-0.094,1.481l-4.444-0.28l0.094-1.481l0.926,0.059l0.538-8.519l-0.926-0.059l0.094-1.481l2.75,0.174
				l0.492,1.114c0.131-0.162,0.277-0.308,0.441-0.437C102.487,65.91,103.336,65.686,104.389,65.752z M101.297,71.809
				c0.311,0.67,0.769,1.024,1.373,1.063c0.611,0.039,1.081-0.172,1.409-0.631c0.327-0.46,0.52-1.13,0.575-2.009
				c0.026-0.414,0.002-0.799-0.073-1.155s-0.187-0.655-0.334-0.897c-0.147-0.241-0.321-0.433-0.524-0.574
				c-0.201-0.142-0.416-0.22-0.645-0.233c-0.309-0.02-0.588,0.049-0.838,0.205s-0.49,0.396-0.722,0.719L101.297,71.809z"/>
			<path fill="#1A1A1A" d="M108.881,66.291l2.863,0.315l0.457,1.184c0.641-0.81,1.458-1.16,2.454-1.05
				c0.667,0.073,1.174,0.337,1.521,0.79c0.348,0.453,0.484,1.008,0.412,1.662c-0.045,0.409-0.227,0.741-0.546,0.997
				s-0.683,0.361-1.092,0.316s-0.741-0.228-0.997-0.546c-0.256-0.319-0.361-0.684-0.316-1.092c0.019-0.166,0.063-0.323,0.131-0.472
				c-0.077-0.058-0.162-0.092-0.254-0.103c-0.206-0.022-0.434,0.089-0.684,0.333c-0.249,0.245-0.504,0.624-0.766,1.137l-0.451,3.922
				l2.029,0.223l-0.162,1.476l-5.533-0.608l0.162-1.476l0.922,0.102l0.609-5.533l-0.922-0.102L108.881,66.291z"/>
			<path fill="#1A1A1A" d="M119.528,72.446c-0.028,0.358-0.021,0.684,0.024,0.976s0.116,0.537,0.215,0.734s0.223,0.366,0.373,0.507
				c0.15,0.142,0.31,0.25,0.479,0.325c0.169,0.075,0.355,0.129,0.557,0.16c0.645,0.103,1.167,0.058,1.569-0.135
				c0.4-0.191,0.751-0.53,1.05-1.015l1.152,0.614c-0.157,0.278-0.341,0.535-0.552,0.77s-0.452,0.442-0.726,0.625
				c-0.272,0.183-0.567,0.329-0.884,0.44s-0.666,0.182-1.046,0.213c-0.381,0.03-0.774,0.014-1.181-0.051
				c-0.602-0.095-1.154-0.29-1.656-0.586c-0.503-0.295-0.922-0.663-1.258-1.103s-0.576-0.954-0.719-1.543
				c-0.145-0.59-0.164-1.21-0.061-1.86c0.102-0.65,0.313-1.237,0.632-1.76s0.706-0.944,1.163-1.265
				c0.455-0.321,0.969-0.548,1.539-0.68c0.57-0.133,1.156-0.151,1.758-0.056c0.602,0.095,1.154,0.293,1.656,0.595
				s0.92,0.675,1.255,1.121s0.573,0.967,0.716,1.562c0.143,0.596,0.162,1.219,0.059,1.869l-0.191,0.477L119.528,72.446z
				 M119.792,70.985l3.235,0.511c0.031-0.715-0.064-1.254-0.285-1.618c-0.221-0.363-0.557-0.581-1.006-0.651
				c-0.223-0.036-0.428-0.031-0.617,0.013c-0.188,0.044-0.365,0.133-0.53,0.268c-0.165,0.136-0.315,0.326-0.45,0.573
				C120.005,70.326,119.889,70.627,119.792,70.985z"/>
			<path fill="#1A1A1A" d="M128.529,76.305c0.146,0.155,0.395,0.27,0.742,0.344c0.312,0.066,0.568,0.103,0.771,0.107
				c0.203,0.006,0.363-0.022,0.48-0.085c0.117-0.062,0.204-0.14,0.259-0.233c0.056-0.095,0.101-0.224,0.135-0.387
				c0.041-0.193,0.025-0.371-0.048-0.532s-0.188-0.303-0.346-0.425s-0.342-0.239-0.556-0.353c-0.213-0.114-0.438-0.227-0.677-0.34
				c-0.238-0.112-0.476-0.23-0.711-0.355c-0.236-0.124-0.455-0.27-0.657-0.434c-0.202-0.165-0.374-0.346-0.516-0.542
				s-0.236-0.433-0.285-0.708c-0.048-0.276-0.038-0.579,0.032-0.909c0.064-0.302,0.16-0.569,0.285-0.802
				c0.126-0.232,0.268-0.423,0.426-0.571c0.158-0.147,0.344-0.268,0.555-0.358c0.213-0.09,0.428-0.153,0.646-0.189
				c0.217-0.035,0.457-0.051,0.721-0.045c0.263,0.005,0.514,0.025,0.754,0.059c0.238,0.034,0.498,0.08,0.775,0.14
				c0.605,0.129,1.117,0.319,1.537,0.569c0.419,0.251,0.73,0.534,0.936,0.85c0.113,0.147,0.191,0.313,0.232,0.498
				s0.043,0.37,0.002,0.558c-0.074,0.351-0.263,0.624-0.563,0.819c-0.301,0.194-0.626,0.255-0.978,0.18
				c-0.351-0.074-0.624-0.263-0.818-0.563c-0.195-0.301-0.256-0.627-0.181-0.978c0.026-0.127,0.071-0.245,0.133-0.355
				c-0.147-0.155-0.396-0.27-0.743-0.344c-0.426-0.091-0.756-0.107-0.987-0.05c-0.232,0.059-0.378,0.227-0.438,0.505
				c-0.037,0.175-0.026,0.34,0.032,0.493s0.155,0.289,0.288,0.407s0.292,0.237,0.476,0.357c0.186,0.12,0.385,0.231,0.602,0.332
				c0.215,0.102,0.434,0.216,0.656,0.342c0.223,0.127,0.439,0.254,0.65,0.381c0.209,0.127,0.401,0.276,0.575,0.447
				c0.173,0.172,0.319,0.354,0.437,0.547c0.116,0.192,0.193,0.418,0.229,0.677c0.036,0.26,0.022,0.537-0.04,0.834
				c-0.09,0.423-0.24,0.781-0.449,1.073c-0.21,0.292-0.453,0.513-0.73,0.662c-0.276,0.149-0.602,0.25-0.977,0.302
				c-0.375,0.051-0.755,0.061-1.141,0.029c-0.385-0.031-0.808-0.097-1.268-0.194c-0.928-0.198-1.639-0.535-2.129-1.01
				c-0.492-0.475-0.672-1.023-0.539-1.646c0.075-0.351,0.264-0.624,0.564-0.819c0.301-0.194,0.627-0.255,0.977-0.18
				c0.352,0.074,0.625,0.263,0.819,0.563c0.195,0.301,0.255,0.627,0.181,0.978C128.635,76.077,128.591,76.195,128.529,76.305z"/>
			<path fill="#1A1A1A" d="M136.578,78.194c0.139,0.163,0.379,0.291,0.722,0.385c0.308,0.084,0.562,0.135,0.765,0.151
				c0.201,0.017,0.363-0.003,0.484-0.058s0.211-0.128,0.271-0.219c0.06-0.092,0.111-0.218,0.156-0.379
				c0.052-0.19,0.046-0.368-0.018-0.533c-0.064-0.165-0.172-0.313-0.321-0.443c-0.15-0.131-0.329-0.259-0.534-0.385
				c-0.207-0.125-0.426-0.251-0.657-0.377c-0.231-0.125-0.462-0.257-0.69-0.395s-0.439-0.295-0.631-0.471
				c-0.192-0.177-0.354-0.366-0.484-0.57c-0.13-0.204-0.211-0.445-0.244-0.724s-0.006-0.579,0.084-0.904
				c0.081-0.299,0.191-0.561,0.33-0.785c0.139-0.226,0.291-0.407,0.457-0.546c0.166-0.14,0.357-0.248,0.574-0.326
				c0.217-0.079,0.436-0.13,0.655-0.153s0.46-0.024,0.722-0.004c0.263,0.02,0.512,0.054,0.75,0.101
				c0.236,0.048,0.492,0.108,0.768,0.184c0.596,0.163,1.097,0.382,1.501,0.655c0.404,0.274,0.7,0.575,0.886,0.901
				c0.105,0.154,0.174,0.324,0.205,0.511c0.03,0.186,0.021,0.372-0.029,0.557c-0.096,0.346-0.299,0.608-0.609,0.785
				c-0.313,0.179-0.641,0.22-0.986,0.125s-0.608-0.298-0.786-0.608c-0.178-0.312-0.22-0.641-0.124-0.986
				c0.033-0.126,0.084-0.241,0.152-0.348c-0.139-0.163-0.379-0.292-0.723-0.386c-0.42-0.114-0.748-0.149-0.982-0.104
				c-0.235,0.044-0.391,0.204-0.465,0.479c-0.048,0.173-0.047,0.338,0.004,0.494c0.05,0.156,0.139,0.297,0.264,0.423
				c0.127,0.126,0.277,0.254,0.455,0.385c0.178,0.13,0.371,0.252,0.581,0.365s0.422,0.239,0.638,0.378
				c0.215,0.14,0.424,0.278,0.626,0.417s0.386,0.299,0.55,0.479s0.299,0.371,0.404,0.569c0.105,0.199,0.17,0.429,0.191,0.69
				c0.021,0.261-0.008,0.537-0.088,0.829c-0.113,0.418-0.283,0.767-0.51,1.046c-0.225,0.28-0.48,0.487-0.766,0.62
				c-0.285,0.134-0.615,0.216-0.992,0.246s-0.757,0.019-1.14-0.035c-0.384-0.054-0.802-0.142-1.255-0.266
				c-0.916-0.251-1.605-0.627-2.069-1.129s-0.612-1.06-0.444-1.674c0.095-0.347,0.298-0.608,0.609-0.786s0.641-0.22,0.986-0.125
				s0.607,0.298,0.785,0.609s0.22,0.641,0.125,0.986C136.696,77.971,136.646,78.087,136.578,78.194z"/>
		</g>
		<g>
			<g>
				<path fill="#1A1A1A" d="M88.244,55.998c7.182,0.207,14.031,0.258,20.227,0.945c1.549,0.135,3.061,0.266,4.529,0.395
					c0.734,0.066,1.457,0.133,2.17,0.199c0.707,0.104,1.404,0.205,2.089,0.305c2.737,0.406,5.286,0.785,7.614,1.131
					c1.162,0.189,2.274,0.32,3.313,0.537c1.035,0.225,2.012,0.439,2.926,0.639c1.82,0.413,3.39,0.769,4.674,1.062
					c2.559,0.605,3.957,0.996,3.931,1.113s-1.476-0.047-4.068-0.445c-1.294-0.211-2.876-0.469-4.712-0.768
					c-0.916-0.156-1.895-0.324-2.934-0.502c-1.039-0.174-2.152-0.262-3.313-0.409c-2.324-0.279-4.867-0.586-7.599-0.914
					c-0.683-0.086-1.376-0.17-2.081-0.258c-0.709-0.051-1.429-0.104-2.159-0.156c-1.462-0.104-2.966-0.211-4.509-0.318
					c-6.16-0.596-12.965-0.596-20.098-0.803c-7.123,0.209-13.92,0.209-20.074,0.807c-1.541,0.109-3.043,0.215-4.504,0.318
					c-0.729,0.053-1.449,0.105-2.157,0.158c-0.704,0.086-1.397,0.172-2.079,0.258c-2.729,0.328-5.271,0.635-7.592,0.914
					c-1.16,0.147-2.273,0.237-3.313,0.411c-1.037,0.178-2.017,0.346-2.932,0.504c-1.835,0.299-3.416,0.555-4.71,0.766
					c-2.592,0.4-4.041,0.564-4.067,0.447c-0.027-0.117,1.371-0.508,3.93-1.115c1.283-0.291,2.852-0.648,4.672-1.062
					c0.913-0.199,1.889-0.412,2.924-0.639c1.038-0.217,2.15-0.348,3.311-0.537c2.326-0.346,4.874-0.727,7.609-1.133
					c0.684-0.1,1.381-0.201,2.088-0.305c0.711-0.066,1.434-0.133,2.166-0.201c1.468-0.129,2.979-0.26,4.526-0.395
					C74.23,56.258,81.072,56.207,88.244,55.998z"/>
			</g>
			<g>
				<path fill="#1A1A1A" d="M88.244,81.354c7.182,0.207,14.031,0.258,20.227,0.945c1.549,0.135,3.061,0.266,4.529,0.395
					c0.734,0.066,1.457,0.133,2.17,0.199c0.707,0.104,1.404,0.205,2.089,0.305c2.737,0.406,5.286,0.785,7.614,1.131
					c1.162,0.189,2.274,0.32,3.313,0.537c1.035,0.225,2.012,0.439,2.926,0.639c1.82,0.414,3.39,0.77,4.674,1.063
					c2.559,0.605,3.957,0.996,3.931,1.113s-1.476-0.047-4.068-0.445c-1.294-0.211-2.876-0.469-4.712-0.768
					c-0.916-0.156-1.895-0.324-2.934-0.502c-1.039-0.174-2.152-0.262-3.313-0.41c-2.324-0.279-4.867-0.586-7.599-0.914
					c-0.683-0.086-1.376-0.17-2.081-0.258c-0.709-0.051-1.429-0.104-2.159-0.156c-1.462-0.104-2.966-0.211-4.509-0.318
					c-6.16-0.596-12.965-0.596-20.098-0.803c-7.123,0.209-13.92,0.209-20.074,0.807c-1.541,0.109-3.043,0.215-4.504,0.318
					c-0.729,0.053-1.449,0.105-2.157,0.158c-0.704,0.086-1.397,0.172-2.079,0.258c-2.729,0.328-5.271,0.635-7.592,0.914
					c-1.16,0.148-2.273,0.238-3.313,0.412c-1.037,0.178-2.017,0.346-2.932,0.504c-1.835,0.299-3.416,0.555-4.71,0.766
					c-2.592,0.4-4.041,0.564-4.067,0.447c-0.027-0.117,1.371-0.508,3.93-1.115c1.283-0.291,2.852-0.648,4.672-1.063
					c0.913-0.199,1.889-0.412,2.924-0.639c1.038-0.217,2.15-0.348,3.311-0.537c2.326-0.346,4.874-0.727,7.609-1.133
					c0.684-0.1,1.381-0.201,2.088-0.305c0.711-0.066,1.434-0.133,2.166-0.201c1.468-0.129,2.979-0.26,4.526-0.395
					C74.23,81.614,81.072,81.563,88.244,81.354z"/>
			</g>
		</g>
	</g>
</g>
<g>
</g>
<g>
</g>
<g>
</g>
<g>
</g>
<g>
</g>
<g>
</g>
</svg>
